<?xml version="1.0" encoding="utf-8"?>
<svg width="50" height="50" id="Layer_1" style="enable-background:new 0 0 504.123 504.123;" x="0px" y="0px" viewBox="0 0 504.123 504.123" xmlns="http://www.w3.org/2000/svg">
  <g/>
  <g/>
  <g/>
  <g/>
  <g/>
  <g/>
  <g/>
  <g/>
  <g/>
  <g/>
  <g/>
  <g/>
  <g/>
  <g/>
  <g/>
  <g transform="matrix(1.072849, 0, 0, 1, 2.171509, -0.054892)">
    <polygon points="318.358 9.186 7.74 9.186 7.74 500.408 413.234 500.408 413.234 98.834" style="fill: rgb(253, 248, 228); stroke-width: 2; stroke: rgb(191, 190, 190);"/>
    <rect x="44.13" y="108.044" style="fill:#54C0EB;" width="71.481" height="67.543"/>
    <g transform="matrix(1.649957, 0, 0, 1.559054, -205.404526, -138.180725)">
      <rect x="207.557" y="172.505" style="fill:#CED5E0;" width="145.329" height="14.572"/>
      <rect x="151.237" y="219.372" style="fill:#CED5E0;" width="43.323" height="43.323"/>
    </g>
    <rect x="137.056" y="225.938" style="fill:#F1543F;" width="239.787" height="22.719"/>
    <rect x="44.13" y="299.006" style="fill:#2C9984;" width="71.481" height="67.543"/>
    <rect x="137.056" y="321.726" style="fill:#CED5E0;" width="239.787" height="22.719"/>
    <rect x="44.13" y="394.795" style="fill:#F1543F;" width="71.481" height="67.543"/>
    <rect x="342.46" y="555.079" style="fill:#54C0EB;" width="239.787" height="22.719" transform="matrix(1, 0, 0, 0.999999, -205.404443, -138.178423)"/>
    <polygon style="fill:#ACB3BA;" points="318.358 98.834 413.234 98.834 318.358 9.186"/>
    <rect x="135.105" y="43.571" style="fill:#324A5E;" width="124.118" height="23.947"/>
  </g>
  <g transform="matrix(0.730233, 0, 0, 0.71945, 148.051437, 152.272125)">
    <path d="M 468.935 192.38 L 290.106 192.38 L 290.106 35.476 C 290.106 34.226 291.013 33.24 292.162 33.24 L 466.879 33.24 C 468.028 33.24 468.935 34.226 468.935 35.476 L 468.935 192.38 Z" style="fill: rgb(235, 94, 84);"/>
    <g transform="matrix(0.604558, 0, 0, 0.657605, 226.86969, -33.83585)">
      <path style="fill:#2B3B4E;" d="M366.8,284.1c-0.2,0-0.3-0.1-0.3-0.3c0-0.2,0.1-0.3,0.3-0.4l32.1-3.6v-22.5c0-0.2,0.1-0.3,0.3-0.3&#10;&#9;&#9;s0.3,0.1,0.3,0.3v22.8c0,0.2-0.1,0.3-0.3,0.3L366.8,284.1C366.9,284.1,366.9,284.1,366.8,284.1z"/>
      <path style="fill:#2B3B4E;" d="M366.8,290.4c-3.4,0-6.2-2.5-6.6-5.9c-0.4-3.6,2.2-6.9,5.8-7.3l26.5-3v-16.7c0-3.5,2.6-6.5,6-6.8&#10;&#9;&#9;c3.9-0.4,7.3,2.7,7.3,6.6v22.8c0,0.9-0.2,1.7-0.5,2.5c-0.1,0.3-0.2,0.6-0.2,0.9l0,0c0,1.1-0.8,2.1-2,2.2l-0.5,0.1&#10;&#9;&#9;c-0.8,0.5-1.8,0.9-2.8,1l-32.7,3.7L366.8,290.4z"/>
    </g>
    <path style="fill:#324A5E;" d="M 476.25 142.271 L 459.625 142.271 C 459.262 142.271 459.02 141.942 459.02 141.613 L 459.02 106.234 C 459.02 105.839 459.322 105.576 459.625 105.576 L 476.25 105.576 C 476.613 105.576 476.855 105.905 476.855 106.234 L 476.855 141.613 C 476.855 142.008 476.552 142.271 476.25 142.271 Z"/>
    <g transform="matrix(0.604558, 0, 0, 0.657605, 226.86969, -33.83585)">
      <path style="fill:#2B3B4E;" d="M138.2,284.1C138.1,284.1,138.1,284.1,138.2,284.1l-32.4-3.7c-0.2,0-0.3-0.2-0.3-0.3v-22.8&#10;&#9;&#9;c0-0.2,0.1-0.3,0.3-0.3s0.3,0.1,0.3,0.3v22.5l32.1,3.6c0.2,0,0.3,0.2,0.3,0.4S138.3,284.1,138.2,284.1z"/>
      <path style="fill:#2B3B4E;" d="M138.2,290.4h-0.4h-0.4l-32.3-3.7c-1-0.1-2-0.5-2.8-1l-0.5-0.1c-1.1-0.1-2-1.1-2-2.2l0,0&#10;&#9;&#9;c0-0.3-0.1-0.6-0.2-0.9c-0.3-0.8-0.5-1.6-0.5-2.5v-22.5c0-3.5,2.6-6.5,6-6.8c3.9-0.4,7.3,2.7,7.3,6.6v16.9l26.5,3&#10;&#9;&#9;c1.8,0.2,3.3,1.1,4.4,2.5c1.1,1.4,1.6,3.1,1.4,4.9C144.4,287.9,141.5,290.4,138.2,290.4z"/>
    </g>
    <path style="fill:#324A5E;" d="M 282.791 142.271 L 299.417 142.271 C 299.779 142.271 300.021 141.942 300.021 141.613 L 300.021 106.234 C 300.021 105.839 299.719 105.576 299.417 105.576 L 282.791 105.576 C 282.429 105.576 282.187 105.905 282.187 106.234 L 282.187 141.613 C 282.187 142.008 282.489 142.271 282.791 142.271 Z"/>
    <path style="fill:#E6E9EE;" d="M 454.365 192.907 C 454.123 156.804 451.644 122.608 447.473 91.767 C 447.11 88.939 444.813 86.835 442.153 86.835 L 316.889 86.835 C 314.228 86.835 311.991 88.939 311.568 91.767 C 307.337 122.608 304.918 156.87 304.676 192.907 L 454.365 192.907 Z"/>
    <path style="fill:#324A5E;" d="M 446.687 141.613 C 445.538 125.37 443.967 109.522 441.851 94.2 L 317.191 94.2 C 315.135 109.456 313.503 125.305 312.354 141.613 L 446.687 141.613 Z"/>
    <path style="fill:#CED5E0;" d="M 429.276 146.742 L 329.766 146.742 C 328.193 146.742 326.863 148.124 326.863 149.899 L 326.863 193.564 L 432.177 193.564 L 432.177 149.899 C 432.177 148.124 430.847 146.742 429.276 146.742 Z"/>
    <g transform="matrix(0.604558, 0, 0, 0.657605, 226.86969, -33.83585)">
      <path style="fill:#ACB3BA;" d="M388.9,349.9v-33.1c0-16.4-13.3-29.6-29.6-29.6c-16.4,0-29.6,13.3-29.6,29.6v33.1H388.9z"/>
      <path style="fill:#ACB3BA;" d="M175.4,349.9v-33.1c0-16.4-13.3-29.6-29.6-29.6c-16.4,0-29.6,13.3-29.6,29.6v33.1H175.4z"/>
    </g>
    <g transform="matrix(0.604558, 0, 0, 0.657605, 226.86969, -33.83585)">
      <path style="fill:#2B3B4E;" d="M388.6,377h-53.7v37.7c0,0.9,0.7,1.6,1.6,1.6h50.6c0.9,0,1.6-0.7,1.6-1.6V377H388.6z"/>
      <path style="fill:#2B3B4E;" d="M170.1,377h-53.7v37.7c0,0.9,0.7,1.6,1.6,1.6h50.5c0.9,0,1.6-0.7,1.6-1.6V377z"/>
    </g>
    <g transform="matrix(0.604558, 0, 0, 0.657605, 226.86969, -33.83585)">
      <path style="fill: rgb(255, 255, 255); stroke: rgb(179, 179, 179);" d="M408.3,383.1H96.7c-0.5,0-1-0.4-1-1v-36c0-0.5,0.4-1,1-1h311.5c0.5,0,1,0.4,1,1v36&#10;&#9;&#9;C409.3,382.7,408.8,383.1,408.3,383.1z"/>
      <circle style="fill: rgb(255, 255, 255); stroke: rgb(179, 179, 179);" cx="359.2" cy="317.9" r="17.6"/>
      <circle style="fill: rgb(255, 255, 255); stroke: rgb(179, 179, 179);" cx="145.8" cy="317.9" r="17.6"/>
    </g>
    <g transform="matrix(0.604558, 0, 0, 0.657605, 226.86969, -33.83585)">
      <rect x="198.7" y="290.4" style="fill:#ACB3BA;" width="12.9" height="45.7"/>
      <rect x="230.3" y="290.4" style="fill:#ACB3BA;" width="12.9" height="45.7"/>
      <rect x="261.8" y="290.4" style="fill:#ACB3BA;" width="12.9" height="45.7"/>
      <rect x="293.4" y="290.4" style="fill:#ACB3BA;" width="12.9" height="45.7"/>
    </g>
  </g>
  <g transform="matrix(0.791192, 0, 0, 0.786319, 153.296738, 211.645966)">
    <g transform="matrix(0.503053, 0, 0, 0.453507, 13.309752, 23.573366)">
      <path d="M 435.648 386.916 L 24.221 386.916 L 24.221 9.802 C 24.221 6.799 26.307 4.428 28.95 4.428 L 430.919 4.428 C 433.561 4.428 435.648 6.799 435.648 9.802 L 435.648 386.916 Z" style="fill: rgb(84, 192, 235);"/>
      <g transform="matrix(1.390895, 0, 0, 1.580531, -121.266525, -156.786423)">
        <path style="fill:#2B3B4E;" d="M366.8,284.1c-0.2,0-0.3-0.1-0.3-0.3c0-0.2,0.1-0.3,0.3-0.4l32.1-3.6v-22.5c0-0.2,0.1-0.3,0.3-0.3&#10;&#9;&#9;s0.3,0.1,0.3,0.3v22.8c0,0.2-0.1,0.3-0.3,0.3L366.8,284.1C366.9,284.1,366.9,284.1,366.8,284.1z"/>
        <path style="fill:#2B3B4E;" d="M366.8,290.4c-3.4,0-6.2-2.5-6.6-5.9c-0.4-3.6,2.2-6.9,5.8-7.3l26.5-3v-16.7c0-3.5,2.6-6.5,6-6.8&#10;&#9;&#9;c3.9-0.4,7.3,2.7,7.3,6.6v22.8c0,0.9-0.2,1.7-0.5,2.5c-0.1,0.3-0.2,0.6-0.2,0.9l0,0c0,1.1-0.8,2.1-2,2.2l-0.5,0.1&#10;&#9;&#9;c-0.8,0.5-1.8,0.9-2.8,1l-32.7,3.7L366.8,290.4z"/>
      </g>
      <path style="fill:#324A5E;" d="M 452.478 266.48 L 414.228 266.48 C 413.393 266.48 412.837 265.689 412.837 264.899 L 412.837 179.867 C 412.837 178.918 413.533 178.286 414.228 178.286 L 452.478 178.286 C 453.312 178.286 453.869 179.076 453.869 179.867 L 453.869 264.899 C 453.869 265.848 453.173 266.48 452.478 266.48 Z"/>
      <g transform="matrix(1.390895, 0, 0, 1.580531, -121.266525, -156.786423)">
        <path style="fill:#2B3B4E;" d="M138.2,284.1C138.1,284.1,138.1,284.1,138.2,284.1l-32.4-3.7c-0.2,0-0.3-0.2-0.3-0.3v-22.8&#10;&#9;&#9;c0-0.2,0.1-0.3,0.3-0.3s0.3,0.1,0.3,0.3v22.5l32.1,3.6c0.2,0,0.3,0.2,0.3,0.4S138.3,284.1,138.2,284.1z"/>
        <path style="fill:#2B3B4E;" d="M138.2,290.4h-0.4h-0.4l-32.3-3.7c-1-0.1-2-0.5-2.8-1l-0.5-0.1c-1.1-0.1-2-1.1-2-2.2l0,0&#10;&#9;&#9;c0-0.3-0.1-0.6-0.2-0.9c-0.3-0.8-0.5-1.6-0.5-2.5v-22.5c0-3.5,2.6-6.5,6-6.8c3.9-0.4,7.3,2.7,7.3,6.6v16.9l26.5,3&#10;&#9;&#9;c1.8,0.2,3.3,1.1,4.4,2.5c1.1,1.4,1.6,3.1,1.4,4.9C144.4,287.9,141.5,290.4,138.2,290.4z"/>
      </g>
      <path style="fill:#324A5E;" d="M 7.391 266.48 L 45.641 266.48 C 46.475 266.48 47.032 265.689 47.032 264.899 L 47.032 179.867 C 47.032 178.918 46.336 178.286 45.641 178.286 L 7.391 178.286 C 6.557 178.286 6 179.076 6 179.867 L 6 264.899 C 6 265.848 6.696 266.48 7.391 266.48 Z"/>
      <path style="fill:#E6E9EE;" d="M 402.127 388.181 C 401.571 301.41 395.868 219.222 386.271 145.095 C 385.437 138.299 380.151 133.241 374.031 133.241 L 85.838 133.241 C 79.718 133.241 74.571 138.299 73.598 145.095 C 63.862 219.222 58.298 301.568 57.742 388.181 L 402.127 388.181 Z"/>
      <path style="fill:#324A5E;" d="M 384.463 264.899 C 381.82 225.86 378.204 187.769 373.336 150.943 L 86.533 150.943 C 81.804 187.611 78.049 225.702 75.406 264.899 L 384.463 264.899 Z"/>
      <path style="fill:#CED5E0;" d="M 344.405 277.227 L 115.464 277.227 C 111.847 277.227 108.787 280.547 108.787 284.814 L 108.787 389.761 L 351.081 389.761 L 351.081 284.814 C 351.081 280.547 348.021 277.227 344.405 277.227 Z"/>
      <g transform="matrix(1.390895, 0, 0, 1.580531, -121.266525, -156.786423)">
        <path style="fill:#ACB3BA;" d="M388.9,349.9v-33.1c0-16.4-13.3-29.6-29.6-29.6c-16.4,0-29.6,13.3-29.6,29.6v33.1H388.9z"/>
        <path style="fill:#ACB3BA;" d="M175.4,349.9v-33.1c0-16.4-13.3-29.6-29.6-29.6c-16.4,0-29.6,13.3-29.6,29.6v33.1H175.4z"/>
      </g>
      <g transform="matrix(1.390895, 0, 0, 1.580531, -121.266525, -156.786423)">
        <path style="fill:#2B3B4E;" d="M388.6,377h-53.7v37.7c0,0.9,0.7,1.6,1.6,1.6h50.6c0.9,0,1.6-0.7,1.6-1.6V377H388.6z"/>
        <path style="fill:#2B3B4E;" d="M170.1,377h-53.7v37.7c0,0.9,0.7,1.6,1.6,1.6h50.5c0.9,0,1.6-0.7,1.6-1.6V377z"/>
      </g>
      <g transform="matrix(1.390895, 0, 0, 1.580531, -121.266525, -156.786423)">
        <path style="fill: rgb(255, 255, 255); stroke: rgb(179, 179, 179);" d="M408.3,383.1H96.7c-0.5,0-1-0.4-1-1v-36c0-0.5,0.4-1,1-1h311.5c0.5,0,1,0.4,1,1v36&#10;&#9;&#9;C409.3,382.7,408.8,383.1,408.3,383.1z"/>
        <circle style="fill: rgb(255, 255, 255); stroke: rgb(179, 179, 179);" cx="359.2" cy="317.9" r="17.6"/>
        <circle style="fill: rgb(255, 255, 255); stroke: rgb(179, 179, 179);" cx="145.8" cy="317.9" r="17.6"/>
      </g>
      <g transform="matrix(1.390895, 0, 0, 1.580531, -121.266525, -156.786423)">
        <rect x="198.7" y="290.4" style="fill:#ACB3BA;" width="12.9" height="45.7"/>
        <rect x="230.3" y="290.4" style="fill:#ACB3BA;" width="12.9" height="45.7"/>
        <rect x="261.8" y="290.4" style="fill:#ACB3BA;" width="12.9" height="45.7"/>
        <rect x="293.4" y="290.4" style="fill:#ACB3BA;" width="12.9" height="45.7"/>
      </g>
    </g>
  </g>
  <g transform="matrix(0.764864, 0, 0, 0.728142, 155.740875, 140.401016)">
    <path d="M 394.909 416.07 L 125.626 416.07 L 125.626 177.771 C 125.626 175.873 126.991 174.375 128.721 174.375 L 391.814 174.375 C 393.543 174.375 394.909 175.873 394.909 177.771 L 394.909 416.07 Z" style="fill: rgb(255, 208, 91);"/>
    <g transform="matrix(0.910353, 0, 0, 0.998741, 30.403015, 72.503036)">
      <path style="fill:#2B3B4E;" d="M366.8,284.1c-0.2,0-0.3-0.1-0.3-0.3c0-0.2,0.1-0.3,0.3-0.4l32.1-3.6v-22.5c0-0.2,0.1-0.3,0.3-0.3&#10;&#9;&#9;s0.3,0.1,0.3,0.3v22.8c0,0.2-0.1,0.3-0.3,0.3L366.8,284.1C366.9,284.1,366.9,284.1,366.8,284.1z"/>
      <path style="fill:#2B3B4E;" d="M366.8,290.4c-3.4,0-6.2-2.5-6.6-5.9c-0.4-3.6,2.2-6.9,5.8-7.3l26.5-3v-16.7c0-3.5,2.6-6.5,6-6.8&#10;&#9;&#9;c3.9-0.4,7.3,2.7,7.3,6.6v22.8c0,0.9-0.2,1.7-0.5,2.5c-0.1,0.3-0.2,0.6-0.2,0.9l0,0c0,1.1-0.8,2.1-2,2.2l-0.5,0.1&#10;&#9;&#9;c-0.8,0.5-1.8,0.9-2.8,1l-32.7,3.7L366.8,290.4z"/>
    </g>
    <path style="fill:#324A5E;" d="M 405.924 339.966 L 380.889 339.966 C 380.343 339.966 379.979 339.466 379.979 338.967 L 379.979 285.235 C 379.979 284.635 380.434 284.236 380.889 284.236 L 405.924 284.236 C 406.47 284.236 406.834 284.735 406.834 285.235 L 406.834 338.967 C 406.834 339.567 406.379 339.966 405.924 339.966 Z"/>
    <g transform="matrix(0.910353, 0, 0, 0.998741, 30.403015, 72.503036)">
      <path style="fill:#2B3B4E;" d="M138.2,284.1C138.1,284.1,138.1,284.1,138.2,284.1l-32.4-3.7c-0.2,0-0.3-0.2-0.3-0.3v-22.8&#10;&#9;&#9;c0-0.2,0.1-0.3,0.3-0.3s0.3,0.1,0.3,0.3v22.5l32.1,3.6c0.2,0,0.3,0.2,0.3,0.4S138.3,284.1,138.2,284.1z"/>
      <path style="fill:#2B3B4E;" d="M138.2,290.4h-0.4h-0.4l-32.3-3.7c-1-0.1-2-0.5-2.8-1l-0.5-0.1c-1.1-0.1-2-1.1-2-2.2l0,0&#10;&#9;&#9;c0-0.3-0.1-0.6-0.2-0.9c-0.3-0.8-0.5-1.6-0.5-2.5v-22.5c0-3.5,2.6-6.5,6-6.8c3.9-0.4,7.3,2.7,7.3,6.6v16.9l26.5,3&#10;&#9;&#9;c1.8,0.2,3.3,1.1,4.4,2.5c1.1,1.4,1.6,3.1,1.4,4.9C144.4,287.9,141.5,290.4,138.2,290.4z"/>
    </g>
    <path style="fill:#324A5E;" d="M 114.611 339.966 L 139.646 339.966 C 140.191 339.966 140.556 339.466 140.556 338.967 L 140.556 285.235 C 140.556 284.635 140.1 284.236 139.646 284.236 L 114.611 284.236 C 114.065 284.236 113.7 284.735 113.7 285.235 L 113.7 338.967 C 113.7 339.567 114.156 339.966 114.611 339.966 Z"/>
    <path style="fill:#E6E9EE;" d="M 372.969 416.869 C 372.605 362.038 368.872 310.103 362.591 263.262 C 362.045 258.968 358.585 255.772 354.58 255.772 L 165.955 255.772 C 161.949 255.772 158.58 258.968 157.944 263.262 C 151.571 310.103 147.93 362.138 147.566 416.869 L 372.969 416.869 Z"/>
    <path style="fill:#324A5E;" d="M 361.408 338.967 C 359.678 314.298 357.311 290.228 354.125 266.958 L 166.41 266.958 C 163.315 290.128 160.857 314.198 159.127 338.967 L 361.408 338.967 Z"/>
    <path style="fill:#CED5E0;" d="M 335.189 346.757 L 185.345 346.757 C 182.978 346.757 180.975 348.855 180.975 351.551 L 180.975 417.867 L 339.559 417.867 L 339.559 351.551 C 339.559 348.855 337.556 346.757 335.189 346.757 Z"/>
    <g transform="matrix(0.910353, 0, 0, 0.998741, 30.403015, 72.503036)">
      <path style="fill:#ACB3BA;" d="M388.9,349.9v-33.1c0-16.4-13.3-29.6-29.6-29.6c-16.4,0-29.6,13.3-29.6,29.6v33.1H388.9z"/>
      <path style="fill:#ACB3BA;" d="M175.4,349.9v-33.1c0-16.4-13.3-29.6-29.6-29.6c-16.4,0-29.6,13.3-29.6,29.6v33.1H175.4z"/>
    </g>
    <g transform="matrix(0.910353, 0, 0, 0.998741, 30.403015, 72.503036)">
      <path style="fill:#2B3B4E;" d="M388.6,377h-53.7v37.7c0,0.9,0.7,1.6,1.6,1.6h50.6c0.9,0,1.6-0.7,1.6-1.6V377H388.6z"/>
      <path style="fill:#2B3B4E;" d="M170.1,377h-53.7v37.7c0,0.9,0.7,1.6,1.6,1.6h50.5c0.9,0,1.6-0.7,1.6-1.6V377z"/>
    </g>
    <g transform="matrix(0.910353, 0, 0, 0.998741, 30.403015, 72.503036)">
      <path style="fill: rgb(255, 255, 255); stroke: rgb(179, 179, 179);" d="M408.3,383.1H96.7c-0.5,0-1-0.4-1-1v-36c0-0.5,0.4-1,1-1h311.5c0.5,0,1,0.4,1,1v36&#10;&#9;&#9;C409.3,382.7,408.8,383.1,408.3,383.1z"/>
      <circle style="fill: rgb(255, 255, 255); stroke: rgb(179, 179, 179);" cx="359.2" cy="317.9" r="17.6"/>
      <circle style="fill: rgb(255, 255, 255); stroke: rgb(179, 179, 179);" cx="145.8" cy="317.9" r="17.6"/>
    </g>
    <g transform="matrix(0.910353, 0, 0, 0.998741, 30.403015, 72.503036)">
      <rect x="198.7" y="290.4" style="fill:#ACB3BA;" width="12.9" height="45.7"/>
      <rect x="230.3" y="290.4" style="fill:#ACB3BA;" width="12.9" height="45.7"/>
      <rect x="261.8" y="290.4" style="fill:#ACB3BA;" width="12.9" height="45.7"/>
      <rect x="293.4" y="290.4" style="fill:#ACB3BA;" width="12.9" height="45.7"/>
    </g>
  </g>
</svg>