<?xml version="1.0" encoding="iso-8859-1"?>
<!-- Generator: Adobe Illustrator 19.0.0, SVG Export Plug-In . SVG Version: 6.00 Build 0)  -->
<svg width="50" height="50" version="1.1" id="Layer_1" xmlns="http://www.w3.org/2000/svg" xmlns:xlink="http://www.w3.org/1999/xlink" x="0px" y="0px"
	 viewBox="0 0 512.001 512.001" style="enable-background:new 0 0 512.001 512.001;" xml:space="preserve">
<path style="fill:#FFE6B8;" d="M463.311,200.044c-4.867-18.074-12.021-35.21-21.155-51.064c14.05-16.402,13.324-41.113-2.204-56.641
	l-20.289-20.29c-15.528-15.528-40.239-16.255-56.641-2.204c-15.855-9.134-32.99-16.288-51.064-21.155
	c-1.665-21.532-19.651-38.489-41.61-38.489h-28.693c-21.959,0-39.945,16.957-41.61,38.49c-18.074,4.866-35.21,12.021-51.064,21.155
	c-16.402-14.05-41.113-13.324-56.641,2.204l-20.29,20.288c-15.528,15.528-16.255,40.239-2.204,56.641
	c-9.134,15.855-16.288,32.99-21.155,51.064c-21.533,1.666-38.49,19.652-38.49,41.611v28.693c0,21.959,16.957,39.945,38.49,41.61
	c4.867,18.074,12.021,35.21,21.155,51.064c-14.05,16.402-13.324,41.113,2.204,56.641l20.289,20.289
	c15.528,15.528,40.239,16.255,56.641,2.204c15.855,9.134,32.99,16.288,51.064,21.155c1.665,21.533,19.651,38.491,41.611,38.491
	h28.693c21.959,0,39.945-16.957,41.61-38.49c18.074-4.866,35.21-12.021,51.064-21.155c16.402,14.05,41.113,13.324,56.641-2.204
	l20.289-20.289c15.528-15.528,16.255-40.239,2.204-56.641c9.134-15.855,16.288-32.99,21.155-51.064
	c21.532-1.665,38.49-19.652,38.49-41.611v-28.693C501.801,219.695,484.844,201.709,463.311,200.044z"/>
<circle style="fill:#FFAD61;" cx="256" cy="256.001" r="170.837"/>
<g>
	<path style="fill:#4D3D36;" d="M270.346,512.001h-28.693c-24.488,0-45.499-17.362-50.7-40.679
		c-14.278-4.306-28.091-10.028-41.212-17.071c-20.166,12.813-47.299,10.231-64.616-7.086l-20.288-20.289
		c-17.317-17.317-19.895-44.451-7.086-64.616c-7.044-13.122-12.766-26.935-17.072-41.212C17.362,315.847,0,294.837,0,270.347
		v-28.693c0-24.489,17.362-45.5,40.677-50.701c4.306-14.277,10.029-28.09,17.072-41.212c-12.809-20.164-10.23-47.298,7.085-64.616
		l20.29-20.289c17.315-17.317,44.45-19.896,64.616-7.085c13.122-7.045,26.937-12.767,41.212-17.072
		C196.155,17.362,217.166,0,241.654,0h28.693c24.488,0,45.5,17.361,50.7,40.677c14.275,4.306,28.09,10.029,41.212,17.072
		c20.165-12.812,47.299-10.231,64.616,7.085l20.289,20.289c17.316,17.317,19.895,44.452,7.086,64.616
		c7.045,13.123,12.766,26.936,17.072,41.212c23.315,5.202,40.677,26.212,40.677,50.701v28.693c0,24.489-17.362,45.499-40.677,50.7
		c-4.305,14.275-10.028,28.09-17.072,41.212c12.809,20.165,10.231,47.3-7.086,64.616l-20.289,20.289
		c-17.316,17.316-44.451,19.896-64.615,7.086c-13.122,7.044-26.935,12.766-41.212,17.071
		C315.846,494.639,294.836,512.001,270.346,512.001z M148.981,431.959c1.748,0,3.504,0.448,5.089,1.362
		c15.245,8.784,31.604,15.561,48.625,20.143c4.173,1.124,7.183,4.754,7.517,9.063c1.262,16.304,15.071,29.076,31.442,29.076h28.693
		c16.37,0,30.18-12.771,31.442-29.077c0.334-4.309,3.344-7.939,7.517-9.063c17.02-4.583,33.38-11.36,48.625-20.143
		c3.745-2.157,8.445-1.721,11.727,1.091c12.421,10.641,31.218,9.906,42.794-1.672l20.29-20.289
		c11.576-11.576,12.309-30.373,1.67-42.794c-2.812-3.283-3.249-7.982-1.091-11.727c8.785-15.247,15.561-31.606,20.143-48.625
		c1.124-4.172,4.755-7.184,9.063-7.518c16.303-1.259,29.075-15.068,29.075-31.439v-28.693c0-16.371-12.771-30.181-29.076-31.441
		c-4.308-0.334-7.939-3.344-9.063-7.518c-4.583-17.019-11.36-33.379-20.143-48.625c-2.158-3.745-1.721-8.444,1.091-11.727
		c10.64-12.421,9.905-31.217-1.671-42.794L412.451,79.26c-11.577-11.578-30.375-12.31-42.794-1.671
		c-3.283,2.814-7.982,3.249-11.727,1.091c-15.248-8.785-31.607-15.563-48.625-20.144c-4.173-1.124-7.183-4.754-7.517-9.063
		c-1.261-16.302-15.071-29.074-31.442-29.074h-28.693c-16.37,0-30.18,12.771-31.441,29.076c-0.333,4.309-3.344,7.939-7.517,9.063
		c-17.018,4.581-33.378,11.36-48.625,20.144c-3.745,2.159-8.444,1.722-11.727-1.091c-12.422-10.642-31.219-9.906-42.795,1.671
		L79.259,99.549c-11.576,11.577-12.309,30.373-1.67,42.794c2.812,3.283,3.249,7.982,1.091,11.727
		c-8.783,15.245-15.56,31.604-20.143,48.626c-1.124,4.173-4.755,7.183-9.063,7.517c-16.304,1.261-29.076,15.071-29.076,31.442
		v28.693c0,16.371,12.771,30.18,29.076,31.44c4.308,0.334,7.939,3.344,9.063,7.517c4.583,17.02,11.36,33.381,20.143,48.626
		c2.158,3.745,1.721,8.444-1.091,11.727c-10.64,12.421-9.906,31.218,1.67,42.794l20.289,20.289
		c11.577,11.577,30.374,12.31,42.795,1.672C144.236,432.79,146.601,431.959,148.981,431.959z"/>
	<path style="fill:#4D3D36;" d="M256,437.037c-99.824,0-181.036-81.212-181.036-181.036S156.176,74.965,256,74.965
		s181.036,81.212,181.036,181.036S355.824,437.037,256,437.037z M256,95.364c-88.576,0-160.637,72.061-160.637,160.637
		S167.424,416.638,256,416.638s160.637-72.061,160.637-160.637S344.576,95.364,256,95.364z"/>
	<path style="fill:#4D3D36;" d="M391.139,266.2c-5.633,0-10.199-4.567-10.199-10.199c0-24.602-7.14-48.403-20.65-68.828
		c-3.107-4.698-1.818-11.026,2.88-14.133c4.698-3.108,11.025-1.817,14.133,2.88c15.724,23.772,24.035,51.464,24.035,80.081
		C401.339,261.633,396.772,266.2,391.139,266.2z"/>
	<path style="fill:#4D3D36;" d="M348.059,167.268c-2.488,0-4.981-0.905-6.947-2.734c-1.377-1.281-2.804-2.551-4.242-3.774
		c-4.292-3.648-4.812-10.085-1.164-14.377c3.649-4.292,10.086-4.813,14.377-1.164c1.67,1.42,3.327,2.895,4.927,4.384
		c4.123,3.838,4.354,10.291,0.516,14.415C353.519,166.177,350.792,167.268,348.059,167.268z"/>
	<path style="fill:#4D3D36;" d="M248.961,349.377c-31.435-0.503-51.05-17.855-51.05-28.417c0-5.029,4.526-11.568,9.305-11.568
		c7.042,0,13.076,18.86,41.745,20.119v-66.894c-22.382-7.796-46.524-16.094-46.524-48.284c0-31.686,23.891-42.751,46.524-44.763
		v-7.544c0-2.766,2.766-5.281,6.539-5.281c3.269,0,6.539,2.515,6.539,5.281v7.042c17.855,0.754,39.734,6.538,39.734,16.597
		c0,4.023-3.27,11.568-9.053,11.568c-5.281,0-12.323-8.299-30.68-9.305v57.338c21.376,7.796,44.26,18.358,44.26,52.809
		c0,30.68-18.106,47.026-44.26,50.548v9.053c0,2.766-3.27,5.281-6.539,5.281c-3.773,0-6.539-2.515-6.539-5.281v-8.299H248.961z
		 M249.966,240.989v-52.809c-15.089,1.508-27.41,8.047-27.41,24.142C222.555,229.673,235.129,235.457,249.966,240.989z
		 M261.031,267.395v61.612c15.843-2.515,25.148-12.323,25.148-28.92C286.179,280.974,274.862,273.179,261.031,267.395z"/>
</g>
<g>
</g>
<g>
</g>
<g>
</g>
<g>
</g>
<g>
</g>
<g>
</g>
<g>
</g>
<g>
</g>
<g>
</g>
<g>
</g>
<g>
</g>
<g>
</g>
<g>
</g>
<g>
</g>
<g>
</g>
</svg>
