<?xml version="1.0" encoding="utf-8"?>
<svg x="0px" y="0px" width="100px" height="100px" viewBox="0 0 460 483" xmlns="http://www.w3.org/2000/svg">
  <g id="freddie-logo-BW"/>
  <path id="Brown" fill="#684C46" d="M 446.388 339.855 C 446.024 341.046 411.609 473.327 276.39 473.287 C 159.502 473.252 104.099 371.652 104.099 371.652 C 95.58 372.127 87.36 370.774 79.779 367.989 C 45.485 355.39 29.031 316.157 40.863 283.241 L 22.015 268.837 C -50.996 213.219 155.831 -41.291 228.969 16.299 C 229.339 16.59 246.428 30.345 246.428 30.345 C 272.688 14.398 298.695 5.777 319.836 5.776 C 334.849 5.775 347.405 10.121 355.861 19.277 C 374.844 39.831 368.021 79.08 342.1 118.818 C 347.675 124.111 352.296 131.305 355.594 138.446 C 363.835 144.805 369.176 154.471 371.83 167.822 C 374.785 182.667 375.398 203.812 377.253 212.898 C 384.243 216.053 381.265 214.593 388.718 218.316 C 396.489 222.2 405.952 226.929 416.41 236.992 C 434.999 241.649 442.097 261.413 431.22 274.901 C 430.928 275.263 429.615 276.819 428.255 278.367 C 428.58 279.223 432.145 285 434.718 296.76 C 442.421 298.579 448.557 303.322 451.777 310.199 C 457.346 323.66 446.388 339.855 446.388 339.855 Z"/>
  <path id="Light-Tan" fill="#F5DCBA" d="M 131.683 290.078 L 131.683 290.078 L 131.683 290.078 C 134.628 282.593 136.112 276.45 136.112 276.45 C 139.483 286.756 141.208 297.595 140.531 308.552 L 140.531 308.552 L 140.531 308.552 C 143.326 304.833 146.326 297.83 146.326 297.83 C 151.525 328.436 129.19 356.452 99.764 356.452 C 73.639 356.452 52.461 334.157 52.461 306.654 C 52.461 279.151 73.639 256.856 99.764 256.856 C 106.536 256.856 112.976 258.354 118.801 261.053 C 118.801 261.052 128.855 266.122 131.683 290.078 Z M 389.089 398.005 C 425.759 369.192 432.166 334.491 432.777 333.295 C 441.8 322.473 439.347 311.811 427.427 311.81 C 423.634 311.81 420.769 312.811 420.769 312.811 C 420.769 312.811 420.813 297.019 413.508 284.72 C 407.877 291.053 392.246 303.599 371.736 313.336 C 352.503 322.467 326.839 330.464 295.035 331.523 L 295.034 331.523 C 286.129 331.91 280.62 330.46 277.518 340.842 C 276.528 344.51 276.956 349.959 277.701 351.534 C 280.21 360.133 286.764 363.923 295.392 365.93 C 301.934 367.454 308.882 367.597 308.882 367.597 C 373.383 369.406 425.177 319.1 425.796 318.682 C 426.395 318.191 426.891 317.61 426.891 317.61 C 426.891 317.61 426.322 318.944 426.254 319.095 C 416.938 340.046 362.997 378.039 309.306 376.951 L 309.13 377.013 C 296.678 376.966 281.549 373.761 273.684 364.008 C 261.24 348.577 267.698 322.919 287.531 322.318 C 287.556 322.317 292.116 322.212 294.146 322.16 C 343.253 320.651 387.315 302.609 418.864 264.934 C 423.202 259.545 418.356 252.142 408.954 251.917 C 408.872 251.915 408.792 251.879 408.736 251.819 C 397.588 239.884 387.79 235.667 379.071 231.236 C 360.795 221.926 362.515 229.968 358.264 184.808 C 357.114 172.633 354.808 156.029 344.112 149.663 C 341.308 147.994 338.244 147.278 335.063 147.278 C 331.919 147.278 330.387 147.92 329.769 148.057 C 323.911 149.355 320.579 152.676 316.406 156.524 C 296.686 174.709 280.924 169.772 257.398 169.564 C 235.303 169.371 215.795 184.784 212.063 208.453 L 212.057 208.466 C 210.243 220.856 211.417 233.445 213.359 239.104 C 213.359 239.104 207.362 235.115 204.504 231.583 C 207.963 253.206 227.69 267.338 227.69 267.338 C 224.583 268.052 220.113 267.756 220.113 267.756 C 220.132 267.772 231.373 276.662 241.13 279.764 C 238.589 281.346 225.728 294.036 219.096 311.506 C 212.89 327.855 215.418 347.482 215.418 347.482 L 220.808 339.447 C 220.808 339.447 217.288 357.354 224.101 374.696 C 226.362 369.537 231.301 360.328 231.301 360.328 C 231.301 360.328 230.518 379.559 239.776 395.305 C 240.014 391.671 241.403 382.419 241.403 382.419 C 241.403 382.419 246.716 398.836 258.988 410.316 C 281.962 430.703 342.792 434.385 389.089 398.005 Z"/>
  <path id="Blue" fill="#0788BF" d="M 47.945 269.23 C 47.759 269.18 30.145 256.254 27.64 251.998 C 12.82 226.989 38.603 175.622 56.95 146.424 C 102.292 74.263 177.762 17.315 212.04 25.448 L 247.241 43.618 C 233.573 51.658 220.354 61.533 212.435 68.1 L 204.945 74.382 C 204.945 74.382 183.071 89.108 172.192 98.392 C 128.582 135.604 85.643 193.212 69.719 248.819 C 69.719 248.817 56.636 255.312 47.945 269.23 Z"/>
  <path id="Light-Blue" fill="#46B8E3" d="M 212.041 25.447 L 212.041 25.447 C 177.762 17.314 102.293 74.262 56.951 146.423 C 56.938 146.444 56.925 146.465 56.912 146.486 L 57.095 146.506 L 93.224 174.949 C 132.893 111.98 182.751 79.511 184.157 78.557 L 178.429 40.017 L 189.16 34.879 L 210.697 41.853 L 209.049 34.658 L 212.041 25.447 L 212.041 25.447 Z"/>
  <path id="Gold" fill="#FFD14F" d="M 247.241 43.617 L 212.435 68.099 L 210 70.004 L 179.136 44.787 L 178.427 40.018 L 189.158 34.88 C 189.709 35.058 209.845 41.579 210.695 41.854 L 211.054 28.483 L 212.04 25.448 L 221.467 21.835 C 221.48 21.845 247.205 43.586 247.241 43.617 Z"/>
  <g id="Navy">
    <path fill="#122030" d="M315.925,19.607c-23.018,0-48.86,12.106-68.684,24.009c-2.781,1.636-5.54,3.349-8.243,5.094l-10.373-8.695&#10;&#9;&#9;&#9;l3.768,13.093c-1.424,0.978-2.815,1.954-4.176,2.923l-21.432-6.544l14.181,11.871c-3.238,2.454-6.13,4.751-8.53,6.741&#10;&#9;&#9;&#9;l-34.008-28.081l1.8,12.585l24.718,21.778c0,0-21.874,14.726-32.753,24.01c-43.61,37.212-86.549,94.82-102.473,150.427&#10;&#9;&#9;&#9;l0.905-0.509c0.123-0.068,0.247-0.125,0.37-0.192c0.443-0.239,0.885-0.466,1.328-0.689c0.284-0.143,0.567-0.288,0.851-0.424&#10;&#9;&#9;&#9;c0.456-0.219,0.912-0.422,1.368-0.623c0.269-0.119,0.539-0.244,0.808-0.356c0.494-0.207,0.987-0.395,1.481-0.582&#10;&#9;&#9;&#9;c0.228-0.086,0.456-0.181,0.684-0.262c0.719-0.258,1.436-0.496,2.15-0.709c10.826-3.229,25.555-5.306,42.796,2.016&#10;&#9;&#9;&#9;c8.659-21.839,19.003-44.058,35.305-65.408c13.218-17.311,25.924-32.765,41.174-41.265&#10;&#9;&#9;&#9;c28.875-27.125,106.701-55.889,131.634-30.956c5.896-9.645,11.012-18.774,15.227-30.219&#10;&#9;&#9;&#9;C356.205,51.118,356.395,19.607,315.925,19.607z"/>
    <polygon fill="#122030" points="217.13,43.936 212.041,25.447 209.048,34.658 210.839,41.899 &#9;&#9;"/>
  </g>
  <path id="White" fill="#FFFFFF" d="M 420.77 312.793 C 420.77 312.793 420.814 297.001 413.509 284.702 C 407.878 291.035 392.247 303.581 371.737 313.318 C 352.504 322.449 326.84 330.446 295.036 331.505 L 295.035 331.505 C 286.13 331.892 280.621 330.442 277.519 340.824 C 277.277 341.719 277.12 342.721 277.031 343.746 L 277.027 343.851 C 277.026 343.851 277.024 343.85 277.023 343.85 C 276.996 344.181 276.976 344.514 276.962 344.846 C 276.931 345.795 276.941 346.631 276.978 347.36 C 276.979 347.378 276.98 347.395 276.981 347.413 C 276.984 347.467 276.987 347.52 276.99 347.572 C 277.018 348.028 277.057 348.466 277.105 348.877 C 277.107 348.897 277.11 348.919 277.112 348.939 C 277.115 348.961 277.117 348.982 277.12 349.004 C 277.33 350.653 277.657 351.419 277.697 351.507 C 277.698 351.51 277.7 351.514 277.701 351.517 L 277.742 351.655 C 280.281 360.156 286.811 363.917 295.392 365.913 C 301.934 367.437 308.883 367.58 308.883 367.58 C 361.51 369.056 405.679 335.838 420.493 323.331 C 420.746 319.826 420.896 317.326 420.77 312.793 Z M 269.584 31.673 C 282.156 25.877 295.631 21.297 308.555 19.977 C 295.719 22.865 280.078 29.52 261.547 40.86 C 261.095 41.121 217.697 70.411 191.183 96.711 C 176.734 111.043 118.712 180.621 118.758 180.562 C 129.362 160.494 136.348 150.643 153.135 129.531 C 162.629 117.591 172.76 105.979 183.131 95.257 C 186.617 91.653 190.131 88.15 193.656 84.768 L 193.656 84.768 L 193.656 84.768 C 195 83.479 225.32 52.432 269.584 31.673 Z"/>
  <path id="Medium-Tan" fill="#EABE8D" d="M 389.089 398.005 C 382.794 402.951 376.231 407.155 369.531 410.679 C 354.036 404.79 344.528 392.243 344.528 392.243 C 344.528 392.243 357.812 389.102 375.569 380.072 C 397.166 369.098 417.349 353.243 432.778 333.294 C 432.166 334.49 425.759 369.192 389.089 398.005 Z M 346.919 230.732 C 339.424 225.402 327.011 229.644 324.274 238.465 C 328.611 238.684 333.213 241.965 332.929 246.163 C 335.991 243.199 340.345 241.526 344.581 241.604 C 342.538 238.328 343.57 232.68 346.919 230.732 Z M 268.283 338.376 C 270.644 329.589 277.312 322.628 287.531 322.318 C 287.556 322.317 292.116 322.212 294.146 322.16 C 343.253 320.651 387.315 302.609 418.864 264.934 C 423.202 259.545 418.356 252.142 408.954 251.917 C 408.917 251.916 408.82 251.917 408.82 251.917 C 407.23 253.598 406.945 256.669 404.315 261.258 C 394.719 277.93 381.446 285.553 363.747 294.399 C 309.484 321.414 281.345 308.844 270.052 325.384 C 266.77 330.252 266.708 335.689 268.283 338.376 C 268.283 338.377 268.283 338.376 268.283 338.376 Z M 366.467 225.074 C 361.277 221.35 361.092 214.854 358.263 184.808 C 357.358 175.225 355.735 162.899 349.87 154.98 C 348.657 153.92 346.952 152.703 344.496 152.703 C 340.791 152.539 336.603 156.378 334.229 159.001 C 327.49 168.727 321.052 174.99 309.665 180.418 C 298.14 185.634 287.188 187.526 275.817 187.167 C 267.494 186.904 260.205 185.533 253.06 185.442 C 239.821 185.235 228.347 189.526 219.984 200.086 C 214.249 207.328 211.947 214.984 211.213 224.096 C 211.241 225.194 211.29 226.23 211.353 227.205 C 211.452 228.653 211.584 230.035 211.744 231.332 C 212.328 235.95 213.161 238.346 213.161 238.346 C 213.161 238.382 213.155 238.417 213.145 238.45 C 213.214 238.676 213.284 238.894 213.356 239.102 C 213.356 239.102 207.359 235.113 204.501 231.581 C 207.385 249.607 221.573 262.427 226.214 266.193 C 226.488 266.403 226.758 266.612 227.023 266.821 C 227.046 266.839 227.066 266.86 227.083 266.882 C 227.472 267.182 227.687 267.337 227.687 267.337 C 224.58 268.051 220.11 267.755 220.11 267.755 C 220.129 267.771 231.37 276.661 241.127 279.763 C 254.071 268.824 268.747 264.625 280.794 263.322 C 288.096 258.791 295.947 254.34 304.377 250.048 C 301.824 234.152 315.921 218.145 333.66 216.608 C 347.045 215.633 353.557 221.633 358.246 228.049 C 360.791 227.237 363.661 226.349 366.868 225.405 C 366.733 225.315 366.598 225.204 366.467 225.074 Z M 372.87 332.133 C 372.735 332.136 372.595 332.166 372.372 332.216 C 367.024 333.455 311.882 354.816 277.023 343.867 C 276.867 345.774 276.917 349.782 277.698 351.524 C 277.699 351.527 277.701 351.531 277.702 351.534 C 282.975 352.591 289.649 353.267 297.395 353.267 C 343.266 353.267 376.323 332.411 372.87 332.133 Z M 116.244 327.85 C 116.257 327.841 116.27 327.832 116.283 327.823 C 119.076 324.821 120.248 320.626 119.584 316.614 C 118.553 310.841 112.012 309.675 107.687 305.192 C 107.618 305.121 107.55 305.049 107.483 304.976 C 107.41 304.897 107.339 304.817 107.27 304.738 C 107.265 304.733 107.261 304.727 107.256 304.722 C 105.313 302.484 104.636 299.939 104.794 297.668 C 105.136 291.763 110.38 290.103 113.109 291.19 C 113.109 291.19 116.346 291.956 118.853 295.453 C 118.853 295.453 118.852 295.447 118.851 295.439 C 118.47 294.285 118.548 292.421 116.586 289.643 C 113.371 285.088 105.986 280.455 95.517 282.673 L 95.519 282.673 C 93.584 283.083 94.668 282.85 92.759 283.388 C 92.461 283.472 92.189 283.555 91.954 283.653 C 91.354 283.934 90.799 284.127 90.267 284.41 L 90.267 284.41 C 89.991 284.564 88.418 285.277 86.525 286.703 C 74.757 301.893 94.688 329.44 116.244 327.85 Z"/>
  <path id="Medium-Brown" fill="#9C7356" d="M 289.748 234.357 C 290.741 235.809 291.007 236.906 290.606 237.362 C 289.806 238.297 286.947 237.034 282.726 235.39 C 271.922 231.359 263.962 230.745 249.872 236.079 C 246.309 237.438 243.783 238.488 242.571 238.307 C 240.595 238.013 242.508 234.396 246.827 230.887 C 255.516 223.955 267.45 221.804 277.648 225.599 C 282.112 227.242 287.125 230.521 289.748 234.357 Z M 287.607 245.408 C 284.645 243.146 279.191 241.629 273.528 242.591 C 272.34 242.772 271.242 243.14 270.162 243.43 C 269.766 243.528 269.387 243.668 269.018 243.823 C 266.677 244.809 264.65 245.872 262.683 247.757 C 260.427 249.938 259.786 251.963 260.438 252.461 C 261.079 252.973 262.641 252.215 265.055 251.239 C 273.141 247.877 278.863 247.788 284.315 248.168 C 286.944 248.345 288.704 248.503 289.112 247.787 C 289.4 247.301 288.877 246.377 287.607 245.408 Z M 113.476 286.88 L 113.478 286.882 L 113.481 286.884 C 114.808 287.939 115.826 289.065 116.585 290.141 C 119.072 293.662 118.281 295.716 119.301 296.715 C 119.669 297.076 120.195 297.19 120.72 296.976 C 122.13 296.394 122.823 294.151 122.955 292.586 L 122.955 292.586 L 122.956 292.576 L 122.956 292.576 C 123.31 288.813 121.321 284.584 118.685 281.587 L 118.685 281.587 L 118.678 281.579 L 118.678 281.579 C 117.065 279.705 114.942 277.959 112.416 276.552 C 109.886 275.143 106.951 274.075 103.723 273.575 C 98.146 272.707 92.66 273.818 91.128 274.275 L 91.136 274.273 C 90.346 274.502 89.37 274.708 88.531 275.037 C 79.435 278.584 73.449 285.096 70.786 293.72 L 70.785 293.723 L 70.784 293.727 C 69.799 297.01 69.407 300.18 69.407 303.108 C 69.407 305.632 69.698 307.978 70.152 310.069 L 70.152 310.071 L 70.153 310.074 L 70.152 310.071 C 70.922 313.588 72.496 317.549 74.952 320.149 L 74.952 320.149 L 74.96 320.157 L 74.96 320.157 C 78.031 323.476 81.397 322.841 79.96 319.753 C 79.617 318.898 77.762 315.402 77.512 309.074 C 77.35 304.933 77.918 300.623 79.438 296.69 C 80.279 294.562 81.432 292.492 82.932 290.631 C 86.023 286.849 89.822 285.156 90.266 284.909 L 90.266 284.909 C 90.798 284.626 91.353 284.433 91.953 284.152 C 92.187 284.054 92.459 283.971 92.758 283.887 C 94.667 283.349 93.584 283.582 95.518 283.172 L 95.516 283.172 C 102.794 281.629 109.057 283.316 113.476 286.88 Z M 111.923 300.933 C 110.918 300.137 110.451 299.457 110.174 298.411 C 109.763 296.505 109.977 295.398 111.606 294.254 C 112.86 293.395 113.87 292.981 113.873 292.441 C 113.93 291.42 109.734 290.368 106.801 293.256 C 104.365 295.851 103.596 301.26 107.482 305.476 C 111.808 310.144 118.535 311.245 119.583 317.114 C 119.721 317.946 119.823 318.872 119.751 319.786 C 119.766 320.836 119.415 322.346 119.398 322.441 C 118.097 328.11 112.717 333.52 103.845 332.141 C 102.211 331.903 101.152 331.702 100.836 332.154 C 100.152 333.106 103.954 337.456 110.914 337.298 C 117.724 337.154 124.48 332.055 126.645 324.392 C 126.67 324.292 127.309 322.12 127.362 320.173 C 127.484 318.731 127.38 317.248 127.111 315.696 C 125.337 305.856 115.559 303.834 111.923 300.933 Z M 349.255 230.68 C 346.564 230.26 343.916 232.911 343.34 236.602 C 342.764 240.292 344.479 243.624 347.17 244.044 C 349.861 244.464 352.509 241.813 353.085 238.122 C 353.661 234.432 351.946 231.1 349.255 230.68 Z M 319.687 241.445 C 318.208 244.144 320.009 247.977 323.711 250.005 C 327.412 252.033 331.612 251.49 333.091 248.79 C 334.57 246.091 332.769 242.258 329.067 240.23 C 325.365 238.202 321.166 238.746 319.687 241.445 Z M 211.355 132.263 C 262.277 99.258 313.142 95.463 330.569 108.862 C 330.57 108.86 330.571 108.859 330.572 108.857 C 330.54 108.769 330.26 107.996 330.151 107.784 L 330.151 107.784 C 325.726 98.382 315.402 91.823 306.205 89.192 C 307.818 90.868 310.152 93.936 311.096 95.759 C 304.155 90.992 294.932 86.793 285.306 84.798 C 285.306 84.798 286.453 85.622 286.649 85.805 C 288.568 87.592 291.121 90.416 292.166 92.841 C 282.966 89.147 271.336 87.077 261.38 88.994 C 261.241 89.021 260.136 89.282 260.136 89.282 C 260.136 89.282 261.432 89.604 261.72 89.69 C 265.022 90.669 269.733 92.681 271.809 95.438 C 255.283 92.531 237.103 95.748 227.298 101.231 C 228.559 101.178 228.547 101.173 229.613 101.201 C 233.22 101.297 240.486 101.787 243.537 103.728 C 233.113 105.848 218.027 110.511 209.906 117.495 C 211.34 117.328 219.477 116.291 222.807 116.826 C 178.107 142.405 157.763 181.077 157.763 181.077 L 157.763 181.077 C 170.942 163.904 188.039 147.375 211.355 132.263 Z"/>
  <path id="Brown-Eye" fill="#684C46" d="M 331.496 204.371 C 331.427 200.862 331.982 195.063 335.286 193.985 L 335.286 193.985 C 335.29 193.984 335.288 193.984 335.293 193.983 L 335.293 193.983 C 340.94 192.024 348.416 206.485 348.76 219.325 C 344.298 217.091 339.054 216.143 333.662 216.61 C 332.306 212.477 331.657 208.583 331.496 204.371 Z"/>
</svg>