<?xml version="1.0" encoding="utf-8"?>
<svg width="50" height="50" id="Layer_1" style="enable-background:new 0 0 497.08 497.08;" x="0px" y="0px" viewBox="0 0 497.08 497.08" xmlns="http://www.w3.org/2000/svg">
  <path d="M 271.53 227.18 L 369.024 227.18 C 371.824 214.266 373.24 201.054 373.24 187.66 C 373.24 84.76 289.52 1.04 186.62 1.04 L 186.62 105.44 C 230.73 105.44 266.62 141.32 266.62 185.44 C 266.62 229.55 230.73 265.44 186.62 265.44 L 186.62 487.34 L 228.22 435.037 L 228.22 300.93 L 271.53 227.18 Z" style="fill: rgb(0, 75, 205);"/>
  <path style="fill:#D8D7DA;" d="M 266.62 185.44 C 266.62 141.32 230.73 105.44 186.62 105.44 L 186.62 265.44 C 230.73 265.44 266.62 229.55 266.62 185.44 Z"/>
  <path d="M 106.62 185.44 C 106.62 141.32 142.51 105.44 186.62 105.44 L 186.62 1.04 C 83.72 1.04 0 84.76 0 187.66 C 0 230.03 13.9 269.99 40.23 303.28 L 186.62 487.34 L 186.62 265.44 C 142.51 265.44 106.62 229.55 106.62 185.44 Z" style="fill: rgb(1, 120, 255);"/>
  <path style="fill:#FFFFFF;" d="M 106.62 185.44 C 106.62 229.55 142.51 265.44 186.62 265.44 L 186.62 105.44 C 142.51 105.44 106.62 141.32 106.62 185.44 Z"/>
  <g/>
  <g/>
  <g/>
  <g/>
  <g/>
  <g/>
  <g/>
  <g/>
  <g/>
  <g/>
  <g/>
  <g/>
  <g/>
  <g/>
  <g/>
  <g transform="matrix(0.519774, 0, 0, 0.549808, 217.286514, 206.717041)">
    <polygon style="fill:#F6BB42;" points="405.315 10.656 106.66 10.656 0 117.325 0 192.652 511.984 207.221 511.984 117.325"/>
    <rect y="117.328" style="fill:#FFCE54;" width="511.98" height="384"/>
    <polygon style="fill:#E6E9ED;" points="298.647 10.656 213.321 10.656 191.986 117.325 319.99 117.325"/>
    <polygon style="fill:#F5F7FA;" points="319.99 213.322 298.647 223.987 277.319 213.322 255.984 223.987 234.657 213.322 213.321 223.987 191.986 213.322 191.986 117.325 319.99 117.325"/>
    <path style="fill:#434A54;" d="M 159.987 394.637 L 53.326 394.637 C 47.435 394.637 42.662 399.418 42.662 405.325 C 42.662 411.2 47.435 415.981 53.326 415.981 L 159.987 415.981 C 165.878 415.981 170.658 411.2 170.658 405.325 C 170.658 399.418 165.878 394.637 159.987 394.637 Z"/>
    <path style="fill:#434A54;" d="M 106.66 437.323 L 53.326 437.323 C 47.435 437.323 42.662 442.073 42.662 447.979 C 42.662 453.854 47.435 458.635 53.326 458.635 L 106.66 458.635 C 112.551 458.635 117.324 453.854 117.324 447.979 C 117.324 442.073 112.551 437.323 106.66 437.323 Z"/>
  </g>
</svg>