<?xml version="1.0" encoding="utf-8"?>
<svg width="50" height="50" id="Layer_1" style="enable-background:new 0 0 504.123 504.123;" x="0px" y="0px" viewBox="0 0 504.123 504.123" xmlns="http://www.w3.org/2000/svg">
  <polygon points="318.358 9.186 7.74 9.186 7.74 500.408 413.234 500.408 413.234 98.834" style="fill: rgb(253, 248, 228); stroke-width: 2; stroke: rgb(191, 190, 190);"/>
  <rect x="44.13" y="108.044" style="fill:#54C0EB;" width="71.481" height="67.543"/>
  <g transform="matrix(1.649957, 0, 0, 1.559054, -205.404526, -138.180725)">
    <rect x="207.557" y="172.505" style="fill:#CED5E0;" width="145.329" height="14.572"/>
    <rect x="151.237" y="219.372" style="fill:#CED5E0;" width="43.323" height="43.323"/>
  </g>
  <rect x="137.056" y="225.938" style="fill:#F1543F;" width="239.787" height="22.719"/>
  <rect x="44.13" y="299.006" style="fill:#2C9984;" width="71.481" height="67.543"/>
  <rect x="137.056" y="321.726" style="fill:#CED5E0;" width="239.787" height="22.719"/>
  <rect x="44.13" y="394.795" style="fill:#F1543F;" width="71.481" height="67.543"/>
  <rect x="342.46" y="555.081" style="fill:#54C0EB;" width="239.787" height="22.719" transform="matrix(1, 0, 0, 0.999997, -205.404467, -138.179203)"/>
  <polygon style="fill:#ACB3BA;" points="318.358 98.834 413.234 98.834 318.358 9.186"/>
  <rect x="135.105" y="43.571" style="fill:#324A5E;" width="124.118" height="23.947"/>
  <g/>
  <g/>
  <g/>
  <g/>
  <g/>
  <g/>
  <g/>
  <g/>
  <g/>
  <g/>
  <g/>
  <g/>
  <g/>
  <g/>
  <g/>
  <g transform="matrix(0.605652, 0, 0, 0.528389, 224.943344, 231.114716)">
    <path d="M 435.648 386.916 L 24.221 386.916 L 24.221 9.802 C 24.221 6.799 26.307 4.428 28.95 4.428 L 430.919 4.428 C 433.561 4.428 435.648 6.799 435.648 9.802 L 435.648 386.916 Z" style="fill: rgb(84, 192, 235);"/>
    <g transform="matrix(1.390895, 0, 0, 1.580531, -121.266525, -156.786423)">
      <path style="fill:#2B3B4E;" d="M366.8,284.1c-0.2,0-0.3-0.1-0.3-0.3c0-0.2,0.1-0.3,0.3-0.4l32.1-3.6v-22.5c0-0.2,0.1-0.3,0.3-0.3&#10;&#9;&#9;s0.3,0.1,0.3,0.3v22.8c0,0.2-0.1,0.3-0.3,0.3L366.8,284.1C366.9,284.1,366.9,284.1,366.8,284.1z"/>
      <path style="fill:#2B3B4E;" d="M366.8,290.4c-3.4,0-6.2-2.5-6.6-5.9c-0.4-3.6,2.2-6.9,5.8-7.3l26.5-3v-16.7c0-3.5,2.6-6.5,6-6.8&#10;&#9;&#9;c3.9-0.4,7.3,2.7,7.3,6.6v22.8c0,0.9-0.2,1.7-0.5,2.5c-0.1,0.3-0.2,0.6-0.2,0.9l0,0c0,1.1-0.8,2.1-2,2.2l-0.5,0.1&#10;&#9;&#9;c-0.8,0.5-1.8,0.9-2.8,1l-32.7,3.7L366.8,290.4z"/>
    </g>
    <path style="fill:#324A5E;" d="M 452.478 266.48 L 414.228 266.48 C 413.393 266.48 412.837 265.689 412.837 264.899 L 412.837 179.867 C 412.837 178.918 413.533 178.286 414.228 178.286 L 452.478 178.286 C 453.312 178.286 453.869 179.076 453.869 179.867 L 453.869 264.899 C 453.869 265.848 453.173 266.48 452.478 266.48 Z"/>
    <g transform="matrix(1.390895, 0, 0, 1.580531, -121.266525, -156.786423)">
      <path style="fill:#2B3B4E;" d="M138.2,284.1C138.1,284.1,138.1,284.1,138.2,284.1l-32.4-3.7c-0.2,0-0.3-0.2-0.3-0.3v-22.8&#10;&#9;&#9;c0-0.2,0.1-0.3,0.3-0.3s0.3,0.1,0.3,0.3v22.5l32.1,3.6c0.2,0,0.3,0.2,0.3,0.4S138.3,284.1,138.2,284.1z"/>
      <path style="fill:#2B3B4E;" d="M138.2,290.4h-0.4h-0.4l-32.3-3.7c-1-0.1-2-0.5-2.8-1l-0.5-0.1c-1.1-0.1-2-1.1-2-2.2l0,0&#10;&#9;&#9;c0-0.3-0.1-0.6-0.2-0.9c-0.3-0.8-0.5-1.6-0.5-2.5v-22.5c0-3.5,2.6-6.5,6-6.8c3.9-0.4,7.3,2.7,7.3,6.6v16.9l26.5,3&#10;&#9;&#9;c1.8,0.2,3.3,1.1,4.4,2.5c1.1,1.4,1.6,3.1,1.4,4.9C144.4,287.9,141.5,290.4,138.2,290.4z"/>
    </g>
    <path style="fill:#324A5E;" d="M 7.391 266.48 L 45.641 266.48 C 46.475 266.48 47.032 265.689 47.032 264.899 L 47.032 179.867 C 47.032 178.918 46.336 178.286 45.641 178.286 L 7.391 178.286 C 6.557 178.286 6 179.076 6 179.867 L 6 264.899 C 6 265.848 6.696 266.48 7.391 266.48 Z"/>
    <path style="fill:#E6E9EE;" d="M 402.127 388.181 C 401.571 301.41 395.868 219.222 386.271 145.095 C 385.437 138.299 380.151 133.241 374.031 133.241 L 85.838 133.241 C 79.718 133.241 74.571 138.299 73.598 145.095 C 63.862 219.222 58.298 301.568 57.742 388.181 L 402.127 388.181 Z"/>
    <path style="fill:#324A5E;" d="M 384.463 264.899 C 381.82 225.86 378.204 187.769 373.336 150.943 L 86.533 150.943 C 81.804 187.611 78.049 225.702 75.406 264.899 L 384.463 264.899 Z"/>
    <path style="fill:#CED5E0;" d="M 344.405 277.227 L 115.464 277.227 C 111.847 277.227 108.787 280.547 108.787 284.814 L 108.787 389.761 L 351.081 389.761 L 351.081 284.814 C 351.081 280.547 348.021 277.227 344.405 277.227 Z"/>
    <g transform="matrix(1.390895, 0, 0, 1.580531, -121.266525, -156.786423)">
      <path style="fill:#ACB3BA;" d="M388.9,349.9v-33.1c0-16.4-13.3-29.6-29.6-29.6c-16.4,0-29.6,13.3-29.6,29.6v33.1H388.9z"/>
      <path style="fill:#ACB3BA;" d="M175.4,349.9v-33.1c0-16.4-13.3-29.6-29.6-29.6c-16.4,0-29.6,13.3-29.6,29.6v33.1H175.4z"/>
    </g>
    <g transform="matrix(1.390895, 0, 0, 1.580531, -121.266525, -156.786423)">
      <path style="fill:#2B3B4E;" d="M388.6,377h-53.7v37.7c0,0.9,0.7,1.6,1.6,1.6h50.6c0.9,0,1.6-0.7,1.6-1.6V377H388.6z"/>
      <path style="fill:#2B3B4E;" d="M170.1,377h-53.7v37.7c0,0.9,0.7,1.6,1.6,1.6h50.5c0.9,0,1.6-0.7,1.6-1.6V377z"/>
    </g>
    <g transform="matrix(1.390895, 0, 0, 1.580531, -121.266525, -156.786423)">
      <path style="fill: rgb(255, 255, 255); stroke: rgb(179, 179, 179);" d="M408.3,383.1H96.7c-0.5,0-1-0.4-1-1v-36c0-0.5,0.4-1,1-1h311.5c0.5,0,1,0.4,1,1v36&#10;&#9;&#9;C409.3,382.7,408.8,383.1,408.3,383.1z"/>
      <circle style="fill: rgb(255, 255, 255); stroke: rgb(179, 179, 179);" cx="359.2" cy="317.9" r="17.6"/>
      <circle style="fill: rgb(255, 255, 255); stroke: rgb(179, 179, 179);" cx="145.8" cy="317.9" r="17.6"/>
    </g>
    <g transform="matrix(1.390895, 0, 0, 1.580531, -121.266525, -156.786423)">
      <rect x="198.7" y="290.4" style="fill:#ACB3BA;" width="12.9" height="45.7"/>
      <rect x="230.3" y="290.4" style="fill:#ACB3BA;" width="12.9" height="45.7"/>
      <rect x="261.8" y="290.4" style="fill:#ACB3BA;" width="12.9" height="45.7"/>
      <rect x="293.4" y="290.4" style="fill:#ACB3BA;" width="12.9" height="45.7"/>
    </g>
  </g>
</svg>