<?xml version="1.0" encoding="utf-8"?>
<svg width="50" height="50" id="Layer_1" style="enable-background:new 0 0 504.123 504.123;" x="0px" y="0px" viewBox="0 0 504.123 504.123" xmlns="http://www.w3.org/2000/svg">
  <polygon points="318.358 9.186 7.74 9.186 7.74 500.408 413.234 500.408 413.234 98.834" style="fill: rgb(253, 248, 228); stroke-width: 2; stroke: rgb(191, 190, 190);"/>
  <rect x="44.13" y="108.044" style="fill:#54C0EB;" width="71.481" height="67.543"/>
  <g transform="matrix(1.649957, 0, 0, 1.559054, -205.404526, -138.180725)">
    <rect x="207.557" y="172.505" style="fill:#CED5E0;" width="145.329" height="14.572"/>
    <rect x="151.237" y="219.372" style="fill:#CED5E0;" width="43.323" height="43.323"/>
  </g>
  <rect x="137.056" y="225.938" style="fill:#F1543F;" width="239.787" height="22.719"/>
  <rect x="44.13" y="299.006" style="fill:#2C9984;" width="71.481" height="67.543"/>
  <rect x="137.056" y="321.726" style="fill:#CED5E0;" width="239.787" height="22.719"/>
  <rect x="44.13" y="394.795" style="fill:#F1543F;" width="71.481" height="67.543"/>
  <rect x="342.46" y="555.081" style="fill:#54C0EB;" width="239.787" height="22.719" transform="matrix(1, 0, 0, 0.999997, -205.404467, -138.179203)"/>
  <polygon style="fill:#ACB3BA;" points="318.358 98.834 413.234 98.834 318.358 9.186"/>
  <rect x="135.105" y="43.571" style="fill:#324A5E;" width="124.118" height="23.947"/>
  <g/>
  <g/>
  <g/>
  <g/>
  <g/>
  <g/>
  <g/>
  <g/>
  <g/>
  <g/>
  <g/>
  <g/>
  <g/>
  <g/>
  <g/>
  <g transform="matrix(0.535266, 0, 0, 0.507443, 222.803513, 234.247757)">
    <polygon style="fill:#F6BB42;" points="405.315 10.656 106.66 10.656 0 117.325 0 192.652 511.984 207.221 511.984 117.325"/>
    <rect y="117.328" style="fill:#FFCE54;" width="511.98" height="384"/>
    <polygon style="fill:#E6E9ED;" points="298.647 10.656 213.321 10.656 191.986 117.325 319.99 117.325"/>
    <polygon style="fill:#F5F7FA;" points="319.99 213.322 298.647 223.987 277.319 213.322 255.984 223.987 234.657 213.322 213.321 223.987 191.986 213.322 191.986 117.325 319.99 117.325"/>
    <path style="fill:#434A54;" d="M 159.987 394.637 L 53.326 394.637 C 47.435 394.637 42.662 399.418 42.662 405.325 C 42.662 411.2 47.435 415.981 53.326 415.981 L 159.987 415.981 C 165.878 415.981 170.658 411.2 170.658 405.325 C 170.658 399.418 165.878 394.637 159.987 394.637 Z"/>
    <path style="fill:#434A54;" d="M 106.66 437.323 L 53.326 437.323 C 47.435 437.323 42.662 442.073 42.662 447.979 C 42.662 453.854 47.435 458.635 53.326 458.635 L 106.66 458.635 C 112.551 458.635 117.324 453.854 117.324 447.979 C 117.324 442.073 112.551 437.323 106.66 437.323 Z"/>
  </g>
</svg>