<?xml version="1.0" encoding="utf-8"?>
<svg id="Layer_1" style="enable-background:new 0 0 512 512;" x="0px" y="0px" viewBox="0 0 512 512" xmlns="http://www.w3.org/2000/svg">
  <path style="fill:#64B3F5;" d="M256,0c141.386,0,256,114.614,256,256c0,141.386-114.614,256-256,256C114.614,512,0,397.386,0,256&#10;&#9;C0,114.614,114.614,0,256,0z"/>
  <path style="fill:#FFFFFF;" d="M226.401,14.422c2.139,0,4.157,0.506,5.944,1.409c1.934-1.895,4.584-3.063,7.507-3.063&#10;&#9;c5.058,0,9.3,3.502,10.434,8.214c2.529,0.761,4.558,2.671,5.484,5.12c0.305-0.035,0.612-0.048,0.926-0.048&#10;&#9;c4.673,0,8.466,3.791,8.466,8.468c0,4.675-3.793,8.464-8.466,8.464c-1.459,0-2.827-0.369-4.023-1.015&#10;&#9;c-1.031,3.521-4.279,6.089-8.131,6.089c-2.35,0-4.478-0.96-6.013-2.509c-1.537,1.548-3.665,2.509-6.018,2.509&#10;&#9;c-2.233,0-4.269-0.869-5.786-2.284c-1.544,1.69-3.771,2.755-6.245,2.755c-2.318,0-4.416-0.928-5.942-2.435&#10;&#9;c-0.701,0.154-1.429,0.233-2.174,0.233c-5.571,0-10.086-4.515-10.086-10.085c0-5.573,4.515-10.088,10.086-10.088&#10;&#9;c0.305,0,0.605,0.016,0.902,0.044C213.981,19.576,219.588,14.422,226.401,14.422z"/>
  <path style="fill:#FFFF00;" d="M189.116,17.867c10.556,0,19.111,8.555,19.111,19.11c0,10.553-8.555,19.108-19.111,19.108&#10;&#9;c-10.555,0-19.11-8.555-19.11-19.108C170.006,26.422,178.561,17.867,189.116,17.867z"/>
  <path style="fill:#FFFFFF;" d="M152.679,41.083c1.684,0,3.276,0.398,4.682,1.109c1.523-1.491,3.61-2.412,5.915-2.412&#10;&#9;c3.985,0,7.325,2.761,8.221,6.471c1.993,0.597,3.59,2.102,4.32,4.036c0.238-0.028,0.481-0.039,0.728-0.039&#10;&#9;c3.681,0,6.671,2.985,6.671,6.67c0,3.684-2.989,6.671-6.671,6.671c-1.147,0-2.228-0.291-3.17-0.802&#10;&#9;c-0.811,2.772-3.372,4.796-6.407,4.796c-1.851,0-3.528-0.756-4.737-1.976c-1.209,1.221-2.887,1.976-4.74,1.976&#10;&#9;c-1.761,0-3.365-0.683-4.556-1.798c-1.219,1.333-2.974,2.169-4.923,2.169c-1.827,0-3.479-0.728-4.682-1.917&#10;&#9;c-0.55,0.121-1.127,0.183-1.713,0.183c-4.387,0-7.944-3.557-7.944-7.946c0-4.387,3.557-7.947,7.944-7.947&#10;&#9;c0.24,0,0.479,0.014,0.71,0.034C142.891,45.141,147.312,41.083,152.679,41.083z"/>
  <path style="fill: rgb(177, 215, 179);" d="M 475.415 227.046 L 517.998 227.621 L 533.921 226.709 L 546.437 220.799 L 550.008 222.327 C 536.525 196.335 517.842 172.508 494.994 151.663 L 481.271 153.78 L 451.023 133.393 L 433.183 108.063 L 432.868 107.896 L 428.855 120.73 L 424.229 157.245 L 422.189 165.842 L 402.491 145.57 L 397.776 148.981 L 372.974 134.681 L 354.013 141.147 L 345.93 139.145 L 309.895 147.183 L 299.312 140.032 L 285.931 144.787 L 277.107 137.791 L 234.55 167.352 L 226.465 166.236 L 198.599 166.236 L 190.146 157.481 L 175.743 161.121 L 116.85 148.493 L 58.757 151.84 L 40.394 141.739 L 26.371 140.234 C -9.794 169.439 -37.21 205.569 -52.523 245.907 L -41.191 246.439 L -1.454 230.42 L 19.296 225.921 L 29.492 229.574 L 65.78 207.614 L 86.257 207.614 L 106.17 202.16 L 132.533 216.343 L 143.087 211.026 L 161.02 221.703 L 171.568 212.43 L 180.585 208.298 L 229.246 245.033 L 257.731 252.342 L 279.532 237.721 L 291.841 240.818 L 329.469 220.581 L 351.627 228.172 L 360.069 225.08 L 400.86 237.721 L 407.89 231.825 L 439.894 227.044 L 455.016 230.699 L 475.415 227.046 Z"/>
  <path style="fill: rgb(174, 212, 137);" d="M 550.008 222.328 C 559.796 241.194 566.845 261.19 570.755 282.014 L 568.694 282.617 L 560.245 293.596 L 546.508 296.129 L 511.647 313.648 L 480.483 322.091 L 459.355 299.295 L 434.527 285.574 L 416.832 289.161 L 409.703 299.717 L 393.326 303.52 L 389.893 315.695 L 370.615 330.325 L 361.107 320.407 L 347.106 313.438 L 341.561 303.729 L 286.629 276.915 L 221.658 302.673 L 196.829 284.731 L 178.605 296.58 L 158.797 323.781 L 103.07 325.591 L 70.318 318.504 L 52.363 310.061 L 33.344 314.285 L 19.08 311.328 L 1.125 298.244 L -12.085 296.762 L -34.798 308.372 L -51.171 316.813 L -64.113 316.813 L -66.242 317.986 C -65.965 292.933 -61.189 268.744 -52.523 245.904 L -41.191 246.438 L -1.454 230.419 L 19.296 225.92 L 29.492 229.573 L 65.78 207.613 L 86.257 207.613 L 106.17 202.159 L 132.533 216.342 L 143.087 211.025 L 161.02 221.702 L 171.568 212.429 L 180.585 208.297 L 229.246 245.032 L 257.731 252.341 L 279.532 237.72 L 291.841 240.817 L 329.469 220.58 L 351.627 228.171 L 360.069 225.079 L 400.86 237.72 L 407.89 231.824 L 439.894 227.043 L 455.016 230.698 L 475.416 227.043 L 517.999 227.618 L 533.923 226.706 L 546.439 220.796 L 550.008 222.328 Z"/>
  <path style="fill: rgb(134, 184, 80);" d="M 570.755 282.014 C 573.098 294.505 574.323 307.291 574.323 320.302 C 574.323 343.474 570.449 365.915 563.232 387.262 L 549.283 393.863 L 521.571 377.346 L 514.192 381.838 L 481.499 359.644 L 468.84 358.237 L 438.693 365.288 L 426.04 357.69 L 412.681 366.692 L 395.368 361.048 L 383.768 363.295 L 365.839 370.32 L 359.864 378.47 L 341.937 385.775 L 328.784 386.771 L 287.099 404.32 L 249.013 389.903 L 232.964 393.921 L 223.466 381.279 L 194.993 387.741 L 172.845 369.48 L 143.668 359.647 L 127.666 364.919 L 117.545 357.644 L 88.362 374.782 L 79.34 370.32 L 60.707 392.797 L 18.53 394.202 L -14.997 375.829 L -39.457 376.8 L -55.953 369.01 L -59.998 370.955 C -64.111 354.581 -66.28 337.644 -66.28 320.302 C -66.28 319.528 -66.251 318.761 -66.242 317.987 L -64.113 316.814 L -51.171 316.814 L -34.798 308.373 L -12.085 296.76 L 1.125 298.242 L 19.08 311.326 L 33.344 314.283 L 52.363 310.059 L 70.318 318.502 L 103.07 325.589 L 158.797 323.779 L 178.605 296.578 L 196.829 284.729 L 221.658 302.671 L 286.629 276.913 L 341.561 303.727 L 347.106 313.436 L 361.107 320.405 L 370.615 330.323 L 389.893 315.693 L 393.326 303.518 L 409.703 299.715 L 416.832 289.159 L 434.527 285.572 L 459.355 299.293 L 480.483 322.089 L 511.647 313.646 L 546.508 296.127 L 560.245 293.594 L 568.694 282.615 L 570.755 282.014 Z"/>
  <g>
    <polygon style="fill:#FFFFFF;" points="204.873,377.829 91.815,416.023 91.815,165.465 204.873,127.269 &#9;&#9;"/>
    <polygon style="fill:#FFFFFF;" points="438.624,370.189 325.568,408.385 325.568,157.826 438.624,119.632 &#9;&#9;"/>
    <polygon style="fill:#FFFFFF;" points="325.568,408.385 204.873,377.829 204.873,127.269 325.568,157.826 &#9;&#9;"/>
    <polygon style="fill:#FFFFFF;" points="325.568,174.25 204.873,142.93 204.873,142.802 107.093,176.43 107.093,394.736 &#10;&#9;&#9;&#9;204.873,361.277 204.873,361.279 325.568,391.96 423.346,359.224 423.346,140.919 &#9;&#9;"/>
  </g>
  <g>
    <path style="fill:#86B850;" d="M213.797,145.246c2.391,14.532,5.161,30.867,6.812,39.001c18.925-2.776,43.236-6.458,48.293-7.781&#10;&#9;&#9;&#9;l-4.151-17.996L213.797,145.246z M271.361,160.183l8.042,38.162l52.524,1.488l34.094-25.948l3.768-14.71l-44.22,15.075&#10;&#9;&#9;&#9;L271.361,160.183z"/>
    <path style="fill:#86B850;" d="M199.057,193.571c2.172,12.754,3.999,23.36,4.286,24.604l-0.042,0.002&#10;&#9;&#9;&#9;c0.106,0.555,0.169,0.887,0.169,0.887l-23.809,3.692l-0.762-6.111l16.974-3.102l-10.517-64.03l-54.318,18.68l39.458,92.759&#10;&#9;&#9;&#9;l66.458-9.932l37.961-48.502l-4.492-19.463L199.057,193.571z M191.272,147.482c1.026,6.107,4.008,23.833,6.755,40.023&#10;&#9;&#9;&#9;c2.116-0.3,8.283-1.179,16.162-2.323l-6.831-41.609l-2.485-0.644v-0.129L191.272,147.482z"/>
  </g>
  <g>
    <polygon style="fill:#BBBBBB;" points="107.093,210.534 132.267,210.534 115.214,173.636 107.093,176.43 &#9;&#9;"/>
    <path style="fill:#BBBBBB;" d="M154.189,284.585l-21.562-15.604l-17.812,31.649l-3.33-1.874l18.027-32.027l-22.419-16.222v65.029&#10;&#9;&#9;&#9;l32.848,5.765L154.189,284.585z M107.093,245.793l48.523,35.11l4.185-10.784l-25.77-55.765h-26.938V245.793z"/>
  </g>
  <path style="fill:#86B850;" d="M 157.036 377.648 L 158.275 364.843 L 139.176 337.342 C 139.176 337.342 117.506 332.63 107.093 330.978 L 107.093 394.735 L 157.036 377.648 Z"/>
  <polygon style="fill:#BBBBBB;" points="175.844 361.788 177.411 370.673 204.873 361.277 204.873 361.279 268.207 377.378 269.038 350.327 228.551 342.689"/>
  <g>
    <polygon style="fill:#86B850;" points="338.018,370.189 274.737,370.189 274.561,378.993 325.568,391.96 349.59,383.917 &#9;&#9;"/>
    <polygon style="fill:#86B850;" points="308.281,334.907 275.149,349.565 274.812,366.369 334.799,366.369 &#9;&#9;"/>
  </g>
  <g>
    <polygon style="fill:#BBBBBB;" points="355.919,309.424 367.246,329.96 388.847,317.569 377.224,297.202 &#9;&#9;"/>
    <polygon style="fill:#BBBBBB;" points="402.922,160.119 423.346,180.772 423.346,142.562 &#9;&#9;"/>
    <polygon style="fill:#BBBBBB;" points="371.564,259.135 391.328,294.18 423.346,274.322 423.346,227.019 &#9;&#9;"/>
    <polygon style="fill:#BBBBBB;" points="423.346,188.567 398.756,163.702 373.121,185.737 401.466,234.138 423.346,220.569 &#9;&#9;"/>
    <polygon style="fill:#BBBBBB;" points="352.527,253.918 331.096,260.084 336.231,281.728 330.899,282.995 325.82,261.603 &#10;&#9;&#9;&#9;304.179,267.827 314.109,327.41 374.647,292.684 &#9;&#9;"/>
    <path style="fill:#BBBBBB;" d="M414.337,362.241l-22.917-40.164l-26.548,15.152l-2.508-4.471l0.128-0.073l-11.329-20.533&#10;&#9;&#9;&#9;l-36.243,20.793l39.907,49.22L414.337,362.241z M423.346,280.773l-29.322,18.186l29.322,51.992V280.773z"/>
    <polygon style="fill:#BBBBBB;" points="368.896,189.37 344.194,210.604 368.868,254.358 396.805,237.029 &#9;&#9;"/>
  </g>
  <g>
    <polygon style="fill:#606060;" points="143.759,214.354 143.759,210.534 132.267,210.534 107.093,210.534 107.093,214.354 &#10;&#9;&#9;&#9;134.031,214.354 &#9;&#9;"/>
    <polygon style="fill:#606060;" points="107.093,250.507 129.512,266.729 111.485,298.757 114.815,300.63 132.627,268.981 &#10;&#9;&#9;&#9;154.189,284.585 155.212,285.324 157.451,282.23 155.616,280.903 107.093,245.793 &#9;&#9;"/>
    <path style="fill:#606060;" d="M423.346,274.322l-32.018,19.857l-19.764-35.044l51.782-32.116v-6.45l-21.88,13.569l-28.344-48.401&#10;&#9;&#9;&#9;l25.634-22.036l0,0l24.59,24.865v-7.795l-20.423-20.653l20.423-17.557v-1.643l-25.371,8.647l-3.131,2.383l-0.971-0.983&#10;&#9;&#9;&#9;l-3.152,1.074l-1.768,1.748l1.494,1.51l-24.425,18.588l-34.094,25.948l-1.012,0.772l9.094,10.393l3.892,27.799l8.627,15.12&#10;&#9;&#9;&#9;l22.121,38.766l-60.539,34.726l-2.509,1.438l-0.547-0.675l-4.583,4.585l1.812,2.149l26.519,31.462h-59.987h-1.953l-2.293,3.82&#10;&#9;&#9;&#9;h4.171h63.28l11.572,13.728l5.236-1.752l-39.907-49.22l36.243-20.793l11.329,20.533l-0.128,0.073l2.508,4.471l26.548-15.152&#10;&#9;&#9;&#9;l22.917,40.164l9.009-3.017v-8.274l-29.322-51.992l29.322-18.186V274.322z M344.194,210.604L344.194,210.604l24.702-21.234&#10;&#9;&#9;&#9;l27.909,47.659l-27.937,17.328L344.194,210.604z M367.246,329.96L367.246,329.96l-11.327-20.535l21.305-12.223l11.623,20.368&#10;&#9;&#9;&#9;L367.246,329.96z"/>
  </g>
  <path style="fill:#FFFFFF;" d="M 264.752 158.469 L 268.903 176.465 C 263.846 177.789 239.535 181.47 220.61 184.246 C 218.959 176.112 216.189 159.778 213.798 145.245 L 207.359 143.573 L 214.19 185.182 C 206.311 186.326 200.144 187.205 198.028 187.505 C 195.281 171.315 192.299 153.588 191.273 147.482 L 185.358 149.513 L 195.875 213.543 L 178.901 216.645 L 179.663 222.756 L 203.472 219.064 C 203.472 219.064 203.408 218.732 203.303 218.177 L 203.345 218.175 C 203.058 216.931 201.231 206.326 199.059 193.571 L 270.425 183.055 L 274.917 202.518 L 276.531 209.523 L 280.368 210.283 L 281.262 209.007 L 281.658 209.037 L 279.404 198.345 L 271.362 160.183 L 264.752 158.469 Z"/>
  <polygon style="fill:#BBBBBB;" points="230.082 272.41 203.934 276.404 200.897 299.755 195.461 299.047 198.294 277.268 175.079 280.814 156.745 327.412 168.968 341.161 223.97 326.647"/>
  <polygon style="fill:#86B850;" points="280.367 210.284 250.706 252.55 342.372 235.744 330.915 212.829 281.657 209.037 281.261 209.008"/>
  <g>
    <polygon style="fill:#BBBBBB;" points="245.36,273.938 243.523,291.507 294.26,291.507 291.193,269.354 &#9;&#9;"/>
    <polygon style="fill:#BBBBBB;" points="240.009,325.119 271.331,333.523 298.067,319.008 295.529,300.674 242.566,300.674 &#9;&#9;"/>
  </g>
  <g>
    <path style="fill:#606060;" d="M336.231,281.728l-5.135-21.645l-1.963-8.271c-1.448,1.182-3.127,2.052-5.03,2.55l1.718,7.24&#10;&#9;&#9;&#9;l5.079,21.392L336.231,281.728z"/>
    <path style="fill:#606060;" d="M200.897,299.755l3.038-23.351l0.93-7.139c-1.771,0.591-3.649,0.81-5.607,0.6l-0.962,7.403&#10;&#9;&#9;&#9;l-2.833,21.779L200.897,299.755z"/>
  </g>
  <g transform="matrix(1, 0, 0, 1, 86.065331, 81.119049)">
    <path style="fill:#F3501E;" d="M 239.768 133.526 C 214.264 133.526 193.589 154.203 193.589 179.705 C 193.589 216.595 239.768 280.49 239.768 280.49 C 239.768 280.49 285.952 218.916 285.952 179.705 C 285.952 154.203 265.274 133.526 239.768 133.526 Z M 239.768 215.06 L 239.768 215.06 C 220.245 215.06 204.417 199.232 204.417 179.704 C 204.417 160.183 220.245 144.353 239.768 144.353 C 259.293 144.353 275.119 160.183 275.119 179.704 C 275.119 199.232 259.293 215.06 239.768 215.06 Z"/>
    <path style="fill:#E54A18;fill-opacity:0.6;" d="M 239.944 133.526 C 239.825 133.526 239.77 133.533 239.77 133.535 L 239.77 144.363 C 239.77 144.363 239.827 144.354 239.944 144.354 C 259.467 144.354 275.208 160.184 275.208 179.705 C 275.208 199.233 259.513 215.061 239.99 215.061 C 239.871 215.061 239.77 215.052 239.77 215.052 L 239.77 279.998 C 239.77 280.32 239.944 280.49 239.944 280.49 C 239.944 280.49 286.128 218.916 286.128 179.705 C 286.128 154.203 265.448 133.526 239.944 133.526 Z"/>
    <path style="fill:#FFFFFF;" d="M 239.77 144.354 C 220.245 144.354 204.417 160.184 204.417 179.705 C 204.417 199.23 220.245 215.058 239.77 215.058 C 239.843 215.058 239.917 215.058 239.99 215.058 C 259.409 214.939 275.119 199.157 275.119 179.705 C 275.119 160.244 259.387 144.45 239.947 144.354 L 239.77 144.354 Z"/>
  </g>
  <g/>
  <g/>
  <g/>
  <g/>
  <g/>
  <g/>
  <g/>
  <g/>
  <g/>
  <g/>
  <g/>
  <g/>
  <g/>
  <g/>
  <g/>
  <g transform="matrix(0.18117, 0, 0, 0.171375, 328.965454, 279.502625)">
    <g>
      <circle style="fill:#54C0EB;" cx="252.5" cy="252.5" r="252.5"/>
      <path style="fill:#84DBFF;" d="M 60.4 416.2 C 106.7 470.5 175.5 505 252.5 505 C 329.4 505 398.3 470.5 444.6 416.2 L 60.4 416.2 Z"/>
      <path style="fill:#FFD05B;" d="M 400.4 344 L 104.6 344 L 104.6 105.4 C 104.6 103.5 106.1 102 108 102 L 397 102 C 398.9 102 400.4 103.5 400.4 105.4 L 400.4 344 Z"/>
      <g>
        <path style="fill:#2B3B4E;" d="M366.8,284.1c-0.2,0-0.3-0.1-0.3-0.3c0-0.2,0.1-0.3,0.3-0.4l32.1-3.6v-22.5c0-0.2,0.1-0.3,0.3-0.3&#10;&#9;&#9;s0.3,0.1,0.3,0.3v22.8c0,0.2-0.1,0.3-0.3,0.3L366.8,284.1C366.9,284.1,366.9,284.1,366.8,284.1z"/>
        <path style="fill:#2B3B4E;" d="M366.8,290.4c-3.4,0-6.2-2.5-6.6-5.9c-0.4-3.6,2.2-6.9,5.8-7.3l26.5-3v-16.7c0-3.5,2.6-6.5,6-6.8&#10;&#9;&#9;c3.9-0.4,7.3,2.7,7.3,6.6v22.8c0,0.9-0.2,1.7-0.5,2.5c-0.1,0.3-0.2,0.6-0.2,0.9l0,0c0,1.1-0.8,2.1-2,2.2l-0.5,0.1&#10;&#9;&#9;c-0.8,0.5-1.8,0.9-2.8,1l-32.7,3.7L366.8,290.4z"/>
      </g>
      <path style="fill:#324A5E;" d="M 412.5 267.8 L 385 267.8 C 384.4 267.8 384 267.3 384 266.8 L 384 213 C 384 212.4 384.5 212 385 212 L 412.5 212 C 413.1 212 413.5 212.5 413.5 213 L 413.5 266.8 C 413.5 267.4 413 267.8 412.5 267.8 Z"/>
      <g>
        <path style="fill:#2B3B4E;" d="M138.2,284.1C138.1,284.1,138.1,284.1,138.2,284.1l-32.4-3.7c-0.2,0-0.3-0.2-0.3-0.3v-22.8&#10;&#9;&#9;c0-0.2,0.1-0.3,0.3-0.3s0.3,0.1,0.3,0.3v22.5l32.1,3.6c0.2,0,0.3,0.2,0.3,0.4S138.3,284.1,138.2,284.1z"/>
        <path style="fill:#2B3B4E;" d="M138.2,290.4h-0.4h-0.4l-32.3-3.7c-1-0.1-2-0.5-2.8-1l-0.5-0.1c-1.1-0.1-2-1.1-2-2.2l0,0&#10;&#9;&#9;c0-0.3-0.1-0.6-0.2-0.9c-0.3-0.8-0.5-1.6-0.5-2.5v-22.5c0-3.5,2.6-6.5,6-6.8c3.9-0.4,7.3,2.7,7.3,6.6v16.9l26.5,3&#10;&#9;&#9;c1.8,0.2,3.3,1.1,4.4,2.5c1.1,1.4,1.6,3.1,1.4,4.9C144.4,287.9,141.5,290.4,138.2,290.4z"/>
      </g>
      <path style="fill:#324A5E;" d="M 92.5 267.8 L 120 267.8 C 120.6 267.8 121 267.3 121 266.8 L 121 213 C 121 212.4 120.5 212 120 212 L 92.5 212 C 91.9 212 91.5 212.5 91.5 213 L 91.5 266.8 C 91.5 267.4 92 267.8 92.5 267.8 Z"/>
      <path style="fill:#E6E9EE;" d="M 376.3 344.8 C 375.9 289.9 371.8 237.9 364.9 191 C 364.3 186.7 360.5 183.5 356.1 183.5 L 148.9 183.5 C 144.5 183.5 140.8 186.7 140.1 191 C 133.1 237.9 129.1 290 128.7 344.8 L 376.3 344.8 Z"/>
      <path style="fill:#324A5E;" d="M 363.6 266.8 C 361.7 242.1 359.1 218 355.6 194.7 L 149.4 194.7 C 146 217.9 143.3 242 141.4 266.8 L 363.6 266.8 Z"/>
      <path style="fill:#CED5E0;" d="M 334.8 274.6 L 170.2 274.6 C 167.6 274.6 165.4 276.7 165.4 279.4 L 165.4 345.8 L 339.6 345.8 L 339.6 279.4 C 339.6 276.7 337.4 274.6 334.8 274.6 Z"/>
      <g>
        <path style="fill:#ACB3BA;" d="M388.9,349.9v-33.1c0-16.4-13.3-29.6-29.6-29.6c-16.4,0-29.6,13.3-29.6,29.6v33.1H388.9z"/>
        <path style="fill:#ACB3BA;" d="M175.4,349.9v-33.1c0-16.4-13.3-29.6-29.6-29.6c-16.4,0-29.6,13.3-29.6,29.6v33.1H175.4z"/>
      </g>
      <g>
        <path style="fill:#2B3B4E;" d="M388.6,377h-53.7v37.7c0,0.9,0.7,1.6,1.6,1.6h50.6c0.9,0,1.6-0.7,1.6-1.6V377H388.6z"/>
        <path style="fill:#2B3B4E;" d="M170.1,377h-53.7v37.7c0,0.9,0.7,1.6,1.6,1.6h50.5c0.9,0,1.6-0.7,1.6-1.6V377z"/>
      </g>
      <g>
        <path style="fill:#FFFFFF;" d="M408.3,383.1H96.7c-0.5,0-1-0.4-1-1v-36c0-0.5,0.4-1,1-1h311.5c0.5,0,1,0.4,1,1v36&#10;&#9;&#9;C409.3,382.7,408.8,383.1,408.3,383.1z"/>
        <circle style="fill:#FFFFFF;" cx="359.2" cy="317.9" r="17.6"/>
        <circle style="fill:#FFFFFF;" cx="145.8" cy="317.9" r="17.6"/>
      </g>
      <g>
        <rect x="198.7" y="290.4" style="fill:#ACB3BA;" width="12.9" height="45.7"/>
        <rect x="230.3" y="290.4" style="fill:#ACB3BA;" width="12.9" height="45.7"/>
        <rect x="261.8" y="290.4" style="fill:#ACB3BA;" width="12.9" height="45.7"/>
        <rect x="293.4" y="290.4" style="fill:#ACB3BA;" width="12.9" height="45.7"/>
      </g>
      <g/>
      <g/>
      <g/>
      <g/>
      <g/>
      <g/>
      <g/>
      <g/>
      <g/>
      <g/>
      <g/>
      <g/>
      <g/>
      <g/>
      <g/>
    </g>
  </g>
</svg>