<!-- Generated by IcoMoon.io -->
<svg version="1.1" xmlns="http://www.w3.org/2000/svg" width="32" height="32" viewBox="0 0 16 16">
    <title>home</title>
    <path fill="#5ca37b" d="M15.92 8c0 4.374-3.546 7.92-7.92 7.92s-7.92-3.546-7.92-7.92c0-4.374 3.546-7.92 7.92-7.92s7.92 3.546 7.92 7.92z"></path>
    <path fill="#fff" d="M5.772 8.869c0.002 0.002 0.003 0.003 0.004 0.005-0.002 0.001-0.003 0.002-0.004 0.002-0.002-0.002-0.003-0.003-0.004-0.005 0.002-0.001 0.003-0.002 0.004-0.002z"></path>
    <path fill="#fff" d="M10.234 8.871c-0.002 0.002-0.003 0.004-0.005 0.006-0.002-0.001-0.004-0.002-0.006-0.003 0.002-0.002 0.004-0.004 0.006-0.006 0.002 0.001 0.003 0.002 0.005 0.003z"></path>
    <path fill="#fff" d="M10.575 11.502h-5.15c-0.207 0-0.376-0.168-0.376-0.376v-3.772h5.901v3.772c0 0.207-0.168 0.376-0.376 0.376z"></path>
    <path fill="#fff" d="M11.701 7.892c0.157 0.157 0.045 0.424-0.177 0.423l-7.004-0.047c-0.22-0.002-0.329-0.267-0.173-0.423l3.478-3.478c0.097-0.097 0.254-0.097 0.35 0l3.526 3.526z"></path>
    <path fill="#5ca37b" d="M8.586 8.819h-1.173c-0.291 0-0.527 0.236-0.527 0.527v2.171h2.228v-2.171c0-0.291-0.236-0.527-0.527-0.527z"></path>
</svg>
