<?xml version="1.0" encoding="utf-8"?>
<svg id="Layer_1" style="enable-background:new 0 0 504.123 504.123;" x="0px" y="0px" viewBox="0 0 504.123 504.123" xmlns="http://www.w3.org/2000/svg">
  <polygon points="318.358 9.186 7.74 9.186 7.74 500.408 413.234 500.408 413.234 98.834" style="fill: rgb(253, 248, 228); stroke-width: 2; stroke: rgb(191, 190, 190);"/>
  <rect x="44.13" y="108.044" style="fill:#54C0EB;" width="71.481" height="67.543"/>
  <g transform="matrix(1.649957, 0, 0, 1.559054, -205.404526, -138.180725)">
    <rect x="207.557" y="172.505" style="fill:#CED5E0;" width="145.329" height="14.572"/>
    <rect x="151.237" y="219.372" style="fill:#CED5E0;" width="43.323" height="43.323"/>
  </g>
  <rect x="137.056" y="225.938" style="fill:#F1543F;" width="239.787" height="22.719"/>
  <rect x="44.13" y="299.006" style="fill:#2C9984;" width="71.481" height="67.543"/>
  <rect x="137.056" y="321.726" style="fill:#CED5E0;" width="239.787" height="22.719"/>
  <rect x="44.13" y="394.795" style="fill:#F1543F;" width="71.481" height="67.543"/>
  <rect x="342.46" y="555.081" style="fill:#54C0EB;" width="239.787" height="22.719" transform="matrix(1, 0, 0, 0.999997, -205.404467, -138.179203)"/>
  <polygon style="fill:#ACB3BA;" points="318.358 98.834 413.234 98.834 318.358 9.186"/>
  <rect x="135.105" y="43.571" style="fill:#324A5E;" width="124.118" height="23.947"/>
  <g/>
  <g/>
  <g/>
  <g/>
  <g/>
  <g/>
  <g/>
  <g/>
  <g/>
  <g/>
  <g/>
  <g/>
  <g/>
  <g/>
  <g/>
  <path d="M 488.794 435.557 L 239.613 435.557 L 239.613 236.294 C 239.613 234.707 240.876 233.454 242.477 233.454 L 485.93 233.454 C 487.53 233.454 488.794 234.707 488.794 236.294 L 488.794 435.557 Z" style="fill: rgb(255, 208, 91);"/>
  <g transform="matrix(0.842398, 0, 0, 0.835135, 151.498032, 148.270493)">
    <path style="fill:#2B3B4E;" d="M366.8,284.1c-0.2,0-0.3-0.1-0.3-0.3c0-0.2,0.1-0.3,0.3-0.4l32.1-3.6v-22.5c0-0.2,0.1-0.3,0.3-0.3&#10;&#9;&#9;s0.3,0.1,0.3,0.3v22.8c0,0.2-0.1,0.3-0.3,0.3L366.8,284.1C366.9,284.1,366.9,284.1,366.8,284.1z"/>
    <path style="fill:#2B3B4E;" d="M366.8,290.4c-3.4,0-6.2-2.5-6.6-5.9c-0.4-3.6,2.2-6.9,5.8-7.3l26.5-3v-16.7c0-3.5,2.6-6.5,6-6.8&#10;&#9;&#9;c3.9-0.4,7.3,2.7,7.3,6.6v22.8c0,0.9-0.2,1.7-0.5,2.5c-0.1,0.3-0.2,0.6-0.2,0.9l0,0c0,1.1-0.8,2.1-2,2.2l-0.5,0.1&#10;&#9;&#9;c-0.8,0.5-1.8,0.9-2.8,1l-32.7,3.7L366.8,290.4z"/>
  </g>
  <path style="fill:#324A5E;" d="M 498.988 371.92 L 475.821 371.92 C 475.316 371.92 474.979 371.502 474.979 371.084 L 474.979 326.154 C 474.979 325.653 475.4 325.319 475.821 325.319 L 498.988 325.319 C 499.493 325.319 499.83 325.736 499.83 326.154 L 499.83 371.084 C 499.83 371.586 499.409 371.92 498.988 371.92 Z"/>
  <g transform="matrix(0.842398, 0, 0, 0.835135, 151.498032, 148.270493)">
    <path style="fill:#2B3B4E;" d="M138.2,284.1C138.1,284.1,138.1,284.1,138.2,284.1l-32.4-3.7c-0.2,0-0.3-0.2-0.3-0.3v-22.8&#10;&#9;&#9;c0-0.2,0.1-0.3,0.3-0.3s0.3,0.1,0.3,0.3v22.5l32.1,3.6c0.2,0,0.3,0.2,0.3,0.4S138.3,284.1,138.2,284.1z"/>
    <path style="fill:#2B3B4E;" d="M138.2,290.4h-0.4h-0.4l-32.3-3.7c-1-0.1-2-0.5-2.8-1l-0.5-0.1c-1.1-0.1-2-1.1-2-2.2l0,0&#10;&#9;&#9;c0-0.3-0.1-0.6-0.2-0.9c-0.3-0.8-0.5-1.6-0.5-2.5v-22.5c0-3.5,2.6-6.5,6-6.8c3.9-0.4,7.3,2.7,7.3,6.6v16.9l26.5,3&#10;&#9;&#9;c1.8,0.2,3.3,1.1,4.4,2.5c1.1,1.4,1.6,3.1,1.4,4.9C144.4,287.9,141.5,290.4,138.2,290.4z"/>
  </g>
  <path style="fill:#324A5E;" d="M 229.42 371.92 L 252.586 371.92 C 253.091 371.92 253.428 371.502 253.428 371.084 L 253.428 326.154 C 253.428 325.653 253.007 325.319 252.586 325.319 L 229.42 325.319 C 228.915 325.319 228.577 325.736 228.577 326.154 L 228.577 371.084 C 228.577 371.586 228.999 371.92 229.42 371.92 Z"/>
  <path style="fill:#E6E9EE;" d="M 468.492 436.225 C 468.156 390.376 464.702 346.949 458.889 307.781 C 458.384 304.19 455.183 301.518 451.476 301.518 L 276.931 301.518 C 273.225 301.518 270.107 304.19 269.518 307.781 C 263.621 346.949 260.252 390.46 259.915 436.225 L 468.492 436.225 Z"/>
  <path style="fill:#324A5E;" d="M 457.794 371.084 C 456.193 350.457 454.003 330.33 451.055 310.871 L 277.352 310.871 C 274.488 330.246 272.214 350.373 270.613 371.084 L 457.794 371.084 Z"/>
  <path style="fill:#CED5E0;" d="M 433.533 377.598 L 294.874 377.598 C 292.684 377.598 290.83 379.353 290.83 381.607 L 290.83 437.06 L 437.576 437.06 L 437.576 381.607 C 437.576 379.353 435.723 377.598 433.533 377.598 Z"/>
  <g transform="matrix(0.842398, 0, 0, 0.835135, 151.498032, 148.270493)">
    <path style="fill:#ACB3BA;" d="M388.9,349.9v-33.1c0-16.4-13.3-29.6-29.6-29.6c-16.4,0-29.6,13.3-29.6,29.6v33.1H388.9z"/>
    <path style="fill:#ACB3BA;" d="M175.4,349.9v-33.1c0-16.4-13.3-29.6-29.6-29.6c-16.4,0-29.6,13.3-29.6,29.6v33.1H175.4z"/>
  </g>
  <g transform="matrix(0.842398, 0, 0, 0.835135, 151.498032, 148.270493)">
    <path style="fill:#2B3B4E;" d="M388.6,377h-53.7v37.7c0,0.9,0.7,1.6,1.6,1.6h50.6c0.9,0,1.6-0.7,1.6-1.6V377H388.6z"/>
    <path style="fill:#2B3B4E;" d="M170.1,377h-53.7v37.7c0,0.9,0.7,1.6,1.6,1.6h50.5c0.9,0,1.6-0.7,1.6-1.6V377z"/>
  </g>
  <g transform="matrix(0.842398, 0, 0, 0.835135, 151.498032, 148.270493)">
    <path style="fill: rgb(255, 255, 255); stroke: rgb(179, 179, 179);" d="M408.3,383.1H96.7c-0.5,0-1-0.4-1-1v-36c0-0.5,0.4-1,1-1h311.5c0.5,0,1,0.4,1,1v36&#10;&#9;&#9;C409.3,382.7,408.8,383.1,408.3,383.1z"/>
    <circle style="fill: rgb(255, 255, 255); stroke: rgb(179, 179, 179);" cx="359.2" cy="317.9" r="17.6"/>
    <circle style="fill: rgb(255, 255, 255); stroke: rgb(179, 179, 179);" cx="145.8" cy="317.9" r="17.6"/>
  </g>
  <g transform="matrix(0.842398, 0, 0, 0.835135, 151.498032, 148.270493)">
    <rect x="198.7" y="290.4" style="fill:#ACB3BA;" width="12.9" height="45.7"/>
    <rect x="230.3" y="290.4" style="fill:#ACB3BA;" width="12.9" height="45.7"/>
    <rect x="261.8" y="290.4" style="fill:#ACB3BA;" width="12.9" height="45.7"/>
    <rect x="293.4" y="290.4" style="fill:#ACB3BA;" width="12.9" height="45.7"/>
  </g>
</svg>