<?xml version="1.0" encoding="utf-8"?>
<svg id="Layer_1" width="64px" height="64px" viewBox="0 0 64 64" xmlns="http://www.w3.org/2000/svg">
  <path d="M56.525,24.533c0-13.548-10.982-24.528-24.529-24.528c-13.356,0-24.2,10.683-24.501,23.968  c-0.009-0.004-0.02-0.004-0.028-0.004c-0.006,0.12,0.013,0.241,0.01,0.362c-0.001,0.067-0.01,0.135-0.01,0.202  c0,0.244,0.03,0.479,0.037,0.72C7.78,41.191,25.795,58.009,31.996,63.995c17.415-14.119,22.485-27.216,23.95-34.199  c0.053-0.245,0.1-0.489,0.145-0.734c0.141-0.752,0.239-1.426,0.307-2.004c0-0.007,0.002-0.014,0.002-0.021  C56.583,25.423,56.525,24.533,56.525,24.533z" fill="#241F20"/>
  <g transform="matrix(0.702451, 0, 0, 0.737229, 9.274252, 2.112906)">
    <circle cx="32" cy="32" fill="#E0E0D1" r="32"/>
    <g opacity="0.2">
      <path d="M36,18H14c-2.209,0-4,1.791-4,4v16c0,2.209,1.791,4,4,4v2c0,2.209,1.791,4,4,4s4-1.791,4-4v-2h18   c0,0,0-1.791,0-4V22C40,19.791,38.209,18,36,18z" fill="#231F20"/>
      <path d="M50,26h-8c0,0,0,1.791,0,4v8c0,1.202,0,2.267,0,3c0,0.615,0,1,0,1v2c0,2.209,1.791,4,4,4s4-1.791,4-4v-2   c2.209,0,4,0,4,0V30C54,27.791,52.209,26,50,26z" fill="#231F20"/>
    </g>
    <path d="M 40 36 C 40 38.209 40 40 40 40 L 14 40 C 11.791 40 10 38.209 10 36 L 10 20 C 10 17.791 11.791 16 14 16 L 36 16 C 38.209 16 40 17.791 40 20 L 40 36 Z" fill="#E0995E"/>
    <path d="M 54 40 C 54 40 52.209 40 50 40 L 42 40 C 42 40 42 38.209 42 36 L 42 28 C 42 25.791 42 24 42 24 L 50 24 C 52.209 24 54 25.791 54 28 L 54 40 Z" fill="#C75C5C"/>
    <g>
      <path d="M18,46c2.209,0,4-1.791,4-4h-8C14,44.209,15.791,46,18,46z" fill="#4F5D73"/>
      <path d="M46,46c2.209,0,4-1.791,4-4h-8C42,44.209,43.791,46,46,46z" fill="#4F5D73"/>
    </g>
  </g>
</svg>