<?xml version="1.0" encoding="utf-8"?>
<svg width="44" height="32" viewBox="10 16 44 32" xmlns="http://www.w3.org/2000/svg">
  <g opacity="0.2" transform="matrix(1, 0, 0, 1, 0, 0)">
    <path d="M36,18H14c-2.209,0-4,1.791-4,4v16c0,2.209,1.791,4,4,4v2c0,2.209,1.791,4,4,4s4-1.791,4-4v-2h18   c0,0,0-1.791,0-4V22C40,19.791,38.209,18,36,18z" fill="#231F20"/>
    <path d="M50,26h-8c0,0,0,1.791,0,4v8c0,1.202,0,2.267,0,3c0,0.615,0,1,0,1v2c0,2.209,1.791,4,4,4s4-1.791,4-4v-2   c2.209,0,4,0,4,0V30C54,27.791,52.209,26,50,26z" fill="#231F20"/>
  </g>
  <path d="M 40 36 C 40 38.209 40 40 40 40 L 14 40 C 11.791 40 10 38.209 10 36 L 10 20 C 10 17.791 11.791 16 14 16 L 36 16 C 38.209 16 40 17.791 40 20 L 40 36 Z" fill="#E0995E" transform="matrix(1, 0, 0, 1, 0, 0)"/>
  <path d="M 54 40 C 54 40 52.209 40 50 40 L 42 40 C 42 40 42 38.209 42 36 L 42 28 C 42 25.791 42 24 42 24 L 50 24 C 52.209 24 54 25.791 54 28 L 54 40 Z" fill="#C75C5C" transform="matrix(1, 0, 0, 1, 0, 0)"/>
  <g transform="matrix(1, 0, 0, 1, 0, 0)">
    <path d="M18,46c2.209,0,4-1.791,4-4h-8C14,44.209,15.791,46,18,46z" fill="#4F5D73"/>
    <path d="M46,46c2.209,0,4-1.791,4-4h-8C42,44.209,43.791,46,46,46z" fill="#4F5D73"/>
  </g>
</svg>