<?xml version="1.0" encoding="utf-8"?>
<svg width="65" height="65" viewBox="215.427 93.921 121.925 157.942" xmlns="http://www.w3.org/2000/svg">
  <ellipse cx="276.39" cy="157.726" rx="37.068" ry="37.834" style="fill: rgb(224, 224, 209);"/>
  <path d="M 276.389 93.921 C 242.723 93.921 215.427 122.379 215.427 157.48 C 215.427 192.58 266.229 251.863 276.389 251.863 C 286.55 251.863 337.352 192.58 337.352 157.48 C 337.352 122.379 310.056 93.921 276.389 93.921 Z M 276.389 199.852 C 253.976 199.852 235.748 180.838 235.748 157.48 C 235.748 134.122 253.976 115.107 276.389 115.107 C 298.804 115.107 317.031 134.122 317.031 157.48 C 317.031 180.838 298.804 199.852 276.389 199.852 Z" style="fill: rgb(224, 224, 209);"/>
  <g transform="matrix(1.147923, 0, 0, 1.266791, -114.386604, -153.118042)">
    <path d="M 344.81 231.17 L 322.81 231.17 C 320.601 231.17 318.81 232.961 318.81 235.17 L 318.81 251.17 C 318.81 253.379 320.601 255.17 322.81 255.17 L 322.81 257.17 C 322.81 259.379 324.601 261.17 326.81 261.17 C 329.019 261.17 330.81 259.379 330.81 257.17 L 330.81 255.17 L 348.81 255.17 C 348.81 255.17 348.81 253.379 348.81 251.17 L 348.81 235.17 C 348.81 232.961 347.019 231.17 344.81 231.17 Z" fill="#231F20"/>
    <path d="M 358.81 239.17 L 350.81 239.17 C 350.81 239.17 350.81 240.961 350.81 243.17 L 350.81 251.17 C 350.81 252.372 350.81 253.437 350.81 254.17 C 350.81 254.785 350.81 255.17 350.81 255.17 L 350.81 257.17 C 350.81 259.379 352.601 261.17 354.81 261.17 C 357.019 261.17 358.81 259.379 358.81 257.17 L 358.81 255.17 C 361.019 255.17 362.81 255.17 362.81 255.17 L 362.81 243.17 C 362.81 240.961 361.019 239.17 358.81 239.17 Z" fill="#231F20"/>
    <path d="M 348.81 249.17 C 348.81 251.379 348.81 253.17 348.81 253.17 L 322.81 253.17 C 320.601 253.17 318.81 251.379 318.81 249.17 L 318.81 233.17 C 318.81 230.961 320.601 229.17 322.81 229.17 L 344.81 229.17 C 347.019 229.17 348.81 230.961 348.81 233.17 L 348.81 249.17 Z" fill="#E0995E"/>
    <path d="M 362.81 253.17 C 362.81 253.17 361.019 253.17 358.81 253.17 L 350.81 253.17 C 350.81 253.17 350.81 251.379 350.81 249.17 L 350.81 241.17 C 350.81 238.961 350.81 237.17 350.81 237.17 L 358.81 237.17 C 361.019 237.17 362.81 238.961 362.81 241.17 L 362.81 253.17 Z" fill="#C75C5C"/>
    <path d="M 326.81 259.17 C 329.019 259.17 330.81 257.379 330.81 255.17 L 322.81 255.17 C 322.81 257.379 324.601 259.17 326.81 259.17 Z" fill="#4F5D73"/>
    <path d="M 354.81 259.17 C 357.019 259.17 358.81 257.379 358.81 255.17 L 350.81 255.17 C 350.81 257.379 352.601 259.17 354.81 259.17 Z" fill="#4F5D73"/>
  </g>
</svg>