<?xml version="1.0" encoding="UTF-8" standalone="no"?>
<svg
   xmlns:dc="http://purl.org/dc/elements/1.1/"
   xmlns:cc="http://creativecommons.org/ns#"
   xmlns:rdf="http://www.w3.org/1999/02/22-rdf-syntax-ns#"
   xmlns:svg="http://www.w3.org/2000/svg"
   xmlns="http://www.w3.org/2000/svg"
   xmlns:sodipodi="http://sodipodi.sourceforge.net/DTD/sodipodi-0.dtd"
   xmlns:inkscape="http://www.inkscape.org/namespaces/inkscape"
   width="44"
   height="32"
   viewBox="10 16 44 32"
   version="1.1"
   id="svg3744"
   sodipodi:docname="truck4.2.svg"
   inkscape:version="0.92.1 r15371">
  <metadata
     id="metadata3750">
    <rdf:RDF>
      <cc:Work
         rdf:about="">
        <dc:format>image/svg+xml</dc:format>
        <dc:type
           rdf:resource="http://purl.org/dc/dcmitype/StillImage" />
        <dc:title></dc:title>
      </cc:Work>
    </rdf:RDF>
  </metadata>
  <defs
     id="defs3748" />
  <sodipodi:namedview
     pagecolor="#ffffff"
     bordercolor="#666666"
     borderopacity="1"
     objecttolerance="10"
     gridtolerance="10"
     guidetolerance="10"
     inkscape:pageopacity="0"
     inkscape:pageshadow="2"
     inkscape:window-width="1600"
     inkscape:window-height="837"
     id="namedview3746"
     showgrid="false"
     inkscape:zoom="20.875"
     inkscape:cx="27.125749"
     inkscape:cy="16"
     inkscape:window-x="-8"
     inkscape:window-y="-8"
     inkscape:window-maximized="1"
     inkscape:current-layer="g3760" />
  <g
     id="g3760">
    <g
       style="opacity:0.17142855"
       id="g3732" />
    <g
       style="display:inline"
       id="g3742"
       inkscape:label="g3742">
      <path
         id="path3740"
         style="fill:#4f5d73"
         d="m 46,46 c 2.209,0 4,-1.791 4,-4 h -8 c 0,2.209 1.791,4 4,4 z m -28,0 c 2.209,0 4,-1.791 4,-4 h -8 c 0,2.209 1.791,4 4,4 z m 36,-6 c 0,0 -1.791,0 -4,0 h -8 c 0,0 0,-1.791 0,-4 v -8 c 0,-2.209 0,-4 0,-4 h 8 c 2.209,0 4,1.791 4,4 z M 40,36 c 0,2.209 0,4 0,4 H 14 c -2.209,0 -4,-1.791 -4,-4 V 20 c 0,-2.209 1.791,-4 4,-4 h 22 c 2.209,0 4,1.791 4,4 z M 50,26 h -8 c 0,0 0,1.791 0,4 v 8 c 0,1.202 0,2.267 0,3 0,0.615 0,1 0,1 v 2 c 0,2.209 1.791,4 4,4 2.209,0 4,-1.791 4,-4 v -2 c 2.209,0 4,0 4,0 V 30 c 0,-2.209 -1.791,-4 -4,-4 z M 36,18 H 14 c -2.209,0 -4,1.791 -4,4 v 16 c 0,2.209 1.791,4 4,4 v 2 c 0,2.209 1.791,4 4,4 2.209,0 4,-1.791 4,-4 v -2 h 18 c 0,0 0,-1.791 0,-4 V 22 c 0,-2.209 -1.791,-4 -4,-4 z"
         inkscape:connector-curvature="0" />
    </g>
  </g>
</svg>
